<?xml version="1.0" encoding="UTF-8"?>
<svg id="Layer_1" data-name="Layer 1" xmlns="http://www.w3.org/2000/svg" xmlns:xlink="http://www.w3.org/1999/xlink" viewBox="0 0 555.05 111.2">
  <defs>
    <style>
      .cls-1 {
        fill: #00a0db;
      }

      .cls-2 {
        clip-path: url(#clippath);
      }
    </style>
    <clipPath id="clippath">
      <path class="cls-1" d="m50.14,38.95c-.63-1.51-1.77-2.52-3.4-3.28l-7.19-2.77c-5.93,2.77-9.96,7.19-12.36,13.37-.5,1.26-.88,2.52-1.26,3.91,1.39,0,2.65.25,4.04.88l9.21,3.78c1.64.63,3.15.63,4.67,0s2.52-1.64,3.15-3.28l3.15-7.94c.76-1.51.63-3.15,0-4.67m-9.71,37.2l11.85,4.67c7.94-.63,14.12-4.16,18.79-10.59-.13-.63-.25-1.26-.5-2.02-.76-1.51-1.89-2.65-3.53-3.28l-8.7-3.53c-.25.13-.5.13-.63.25-.25.13-.5.13-.88.13-1.77,0-3.15-1.39-3.15-3.15s1.39-3.15,3.15-3.15c1.51,0,2.65,1.01,3.03,2.4l8.57,3.53c1.51.63,3.15.63,4.79,0,.76-.38,1.39-.76,1.89-1.26,1.26-7.06-.25-13.37-4.41-19.17l-14-5.8,1.26-3.03.25-.63c-4.16-1.26-8.7-1.51-12.99-.5l3.03,1.26c2.65.88,4.54,2.77,5.67,5.3s1.26,5.04.25,7.57l-3.28,7.94c-1.01,2.52-2.9,4.29-5.42,5.3s-5.17,1.01-7.69,0l-9.21-3.78c-3.78-1.26-3.53.25-3.15,3.28.38,3.66,1.39,7.06,3.28,10.34,2.52,4.41,6.43,8.07,10.97,10.21"/>
    </clipPath>
  </defs>
  <g>
    <path class="cls-1" d="m463.15,45.49c1.28.69,2.27,1.67,2.97,2.93.7,1.27,1.05,2.72,1.05,4.35s-.36,3.03-1.09,4.26c-.73,1.23-1.75,2.18-3.07,2.86-1.32.68-2.83,1.02-4.55,1.02h-5.45c-.13,0-.19.06-.19.19v9.78c0,.13-.04.24-.13.33s-.2.13-.33.13h-4.49c-.13,0-.24-.04-.33-.13s-.13-.2-.13-.33v-25.97c0-.13.04-.24.13-.33s.2-.13.33-.13h10.82c1.69,0,3.17.35,4.45,1.04Zm-2.42,10.07c.72-.68,1.07-1.57,1.07-2.67s-.36-2.03-1.07-2.72c-.72-.69-1.66-1.04-2.84-1.04h-4.87c-.13,0-.19.06-.19.19v7.06c0,.13.06.19.19.19h4.87c1.18,0,2.12-.34,2.84-1.02Z"/>
    <path class="cls-1" d="m470.65,71.21c-.09-.09-.13-.2-.13-.33v-25.93c0-.13.04-.24.13-.33s.2-.13.33-.13h4.49c.13,0,.24.04.33.13.09.09.13.2.13.33v21.56c0,.13.06.19.19.19h12.54c.13,0,.24.04.33.13.09.09.13.2.13.33v3.72c0,.13-.04.24-.13.33s-.2.13-.33.13h-17.68c-.13,0-.24-.04-.33-.13Z"/>
    <path class="cls-1" d="m496.33,70.48c-1.51-.78-2.67-1.87-3.49-3.28-.82-1.41-1.23-3.03-1.23-4.87v-8.86c0-1.84.41-3.46,1.23-4.87.82-1.41,1.98-2.49,3.49-3.26,1.51-.77,3.26-1.15,5.26-1.15s3.7.37,5.2,1.09,2.66,1.76,3.49,3.11c.83,1.34,1.25,2.9,1.25,4.66,0,.23-.15.37-.46.42l-4.49.27h-.08c-.26,0-.38-.14-.38-.42,0-1.36-.42-2.44-1.25-3.26-.83-.82-1.92-1.23-3.28-1.23s-2.49.41-3.32,1.23-1.25,1.91-1.25,3.26v9.25c0,1.33.42,2.4,1.25,3.22s1.94,1.23,3.32,1.23,2.45-.41,3.28-1.23c.83-.82,1.25-1.89,1.25-3.22,0-.28.15-.42.46-.42l4.49.19c.13,0,.24.04.33.12.09.08.13.17.13.27,0,1.76-.42,3.33-1.25,4.68-.83,1.36-2,2.4-3.49,3.15-1.5.74-3.23,1.11-5.2,1.11s-3.75-.39-5.26-1.17Z"/>
    <path class="cls-1" d="m515.84,70.63c-.58-.58-.86-1.3-.86-2.17s.28-1.62.84-2.19c.56-.56,1.29-.84,2.19-.84s1.62.28,2.19.84.84,1.29.84,2.19-.29,1.59-.86,2.17c-.58.58-1.3.86-2.17.86s-1.59-.29-2.17-.86Z"/>
  </g>
  <g>
    <g>
      <path class="cls-1" d="m50.14,38.95c-.63-1.51-1.77-2.52-3.4-3.28l-7.19-2.77c-5.93,2.77-9.96,7.19-12.36,13.37-.5,1.26-.88,2.52-1.26,3.91,1.39,0,2.65.25,4.04.88l9.21,3.78c1.64.63,3.15.63,4.67,0s2.52-1.64,3.15-3.28l3.15-7.94c.76-1.51.63-3.15,0-4.67m-9.71,37.2l11.85,4.67c7.94-.63,14.12-4.16,18.79-10.59-.13-.63-.25-1.26-.5-2.02-.76-1.51-1.89-2.65-3.53-3.28l-8.7-3.53c-.25.13-.5.13-.63.25-.25.13-.5.13-.88.13-1.77,0-3.15-1.39-3.15-3.15s1.39-3.15,3.15-3.15c1.51,0,2.65,1.01,3.03,2.4l8.57,3.53c1.51.63,3.15.63,4.79,0,.76-.38,1.39-.76,1.89-1.26,1.26-7.06-.25-13.37-4.41-19.17l-14-5.8,1.26-3.03.25-.63c-4.16-1.26-8.7-1.51-12.99-.5l3.03,1.26c2.65.88,4.54,2.77,5.67,5.3s1.26,5.04.25,7.57l-3.28,7.94c-1.01,2.52-2.9,4.29-5.42,5.3s-5.17,1.01-7.69,0l-9.21-3.78c-3.78-1.26-3.53.25-3.15,3.28.38,3.66,1.39,7.06,3.28,10.34,2.52,4.41,6.43,8.07,10.97,10.21"/>
      <g>
        <path class="cls-1" d="m50.14,38.95c-.63-1.51-1.77-2.52-3.4-3.28l-7.19-2.77c-5.93,2.77-9.96,7.19-12.36,13.37-.5,1.26-.88,2.52-1.26,3.91,1.39,0,2.65.25,4.04.88l9.21,3.78c1.64.63,3.15.63,4.67,0s2.52-1.64,3.15-3.28l3.15-7.94c.76-1.51.63-3.15,0-4.67m-9.71,37.2l11.85,4.67c7.94-.63,14.12-4.16,18.79-10.59-.13-.63-.25-1.26-.5-2.02-.76-1.51-1.89-2.65-3.53-3.28l-8.7-3.53c-.25.13-.5.13-.63.25-.25.13-.5.13-.88.13-1.77,0-3.15-1.39-3.15-3.15s1.39-3.15,3.15-3.15c1.51,0,2.65,1.01,3.03,2.4l8.57,3.53c1.51.63,3.15.63,4.79,0,.76-.38,1.39-.76,1.89-1.26,1.26-7.06-.25-13.37-4.41-19.17l-14-5.8,1.26-3.03.25-.63c-4.16-1.26-8.7-1.51-12.99-.5l3.03,1.26c2.65.88,4.54,2.77,5.67,5.3s1.26,5.04.25,7.57l-3.28,7.94c-1.01,2.52-2.9,4.29-5.42,5.3s-5.17,1.01-7.69,0l-9.21-3.78c-3.78-1.26-3.53.25-3.15,3.28.38,3.66,1.39,7.06,3.28,10.34,2.52,4.41,6.43,8.07,10.97,10.21"/>
        <g class="cls-2">
          <rect class="cls-1" x="24.67" y="30" width="51.7" height="52.71"/>
        </g>
      </g>
    </g>
    <g>
      <path class="cls-1" d="m407.12,70.48h-19.17v-3.66l3.4-3.66c5.8-5.93,9.21-9.84,9.21-13.87,0-2.65-1.39-4.79-4.79-4.79-2.27,0-4.29,1.13-5.67,2.14l-1.64-4.29c1.89-1.39,5.04-2.77,8.57-2.77,6.56,0,9.58,4.16,9.58,9.08,0,5.3-3.66,9.71-8.2,14.12l-2.52,2.52v.13h11.22v5.04Z"/>
      <path class="cls-1" d="m422.5,54.21c3.4.76,6.18,3.53,6.18,7.57,0,5.04-4.04,9.08-11.22,9.08-3.28,0-6.18-.88-7.69-1.89l1.39-4.41c1.13.76,3.66,1.64,5.93,1.64,3.66,0,5.55-2.27,5.55-4.67,0-3.4-3.03-5.04-6.3-5.04h-2.02v-4.16h1.89c2.4,0,5.42-1.26,5.42-4.29,0-2.14-1.39-3.66-4.29-3.66-2.14,0-4.16.88-5.3,1.64l-1.26-4.29c1.64-1.01,4.67-2.02,7.94-2.02,5.93,0,8.95,3.4,8.95,7.44,0,3.15-1.89,5.8-5.17,7.06h0Z"/>
      <g>
        <path class="cls-1" d="m100.83,44.12c1.64-.38,4.92-.5,8.07-.5,3.78,0,6.18.38,8.2,1.51,1.89,1.01,3.28,2.9,3.28,5.3s-1.39,4.67-4.54,5.8v.13c3.15.88,5.55,3.15,5.55,6.68,0,2.52-1.13,4.41-2.9,5.8-2.02,1.51-5.42,2.52-10.84,2.52-3.03,0-5.42-.25-6.81-.38,0,0,0-26.86,0-26.86Zm6.18,10.34h2.02c3.28,0,5.04-1.39,5.04-3.4s-1.64-3.15-4.41-3.15c-1.39,0-2.14.13-2.65.13v6.43Zm0,12.11c.63.13,1.39.13,2.4.13,2.77,0,5.3-1.01,5.3-3.91s-2.52-3.78-5.67-3.78h-2.14v7.57h.13Z"/>
        <path class="cls-1" d="m125.55,44.12c2.02-.38,5.04-.5,8.32-.5,4.04,0,6.94.63,8.95,2.14,1.64,1.26,2.52,3.15,2.52,5.67,0,3.53-2.52,5.8-4.92,6.68h0c1.89.76,3.03,2.52,3.66,5.04.88,3.03,1.77,6.68,2.27,7.69h-6.43c-.5-.76-1.13-3.03-1.89-6.3-.76-3.4-1.89-4.29-4.41-4.41h-1.89v10.72h-6.18s0-26.73,0-26.73Zm6.18,11.6h2.4c3.15,0,4.92-1.51,4.92-3.91,0-2.52-1.77-3.78-4.54-3.78-1.51,0-2.4.13-2.77.25,0,0,0,7.44,0,7.44Z"/>
        <path class="cls-1" d="m156.69,63.92l-2.02,6.94h-6.43l8.45-27.24h8.2l8.57,27.24h-6.68l-2.14-6.94h-7.94Zm7.06-4.54l-1.77-5.8c-.5-1.64-1.01-3.66-1.39-5.3h-.13c-.38,1.64-.76,3.66-1.26,5.3l-1.64,5.8h6.18Z"/>
        <path class="cls-1" d="m183.42,43.75v27.24h-6.3v-27.24h6.3Z"/>
        <path class="cls-1" d="m188.85,70.86v-27.11h7.31l5.67,9.96c1.64,2.9,3.28,6.3,4.54,9.33h.13c-.38-3.66-.5-7.31-.5-11.35v-7.94h5.67v27.24h-6.56l-5.93-10.47c-1.64-2.9-3.4-6.43-4.79-9.58h-.13c.13,3.53.25,7.44.25,11.85v8.2h-5.67v-.13h0Z"/>
        <path class="cls-1" d="m225.54,64.55c1.64.88,4.29,1.64,6.94,1.64,2.9,0,4.41-1.13,4.41-2.9,0-1.64-1.26-2.65-4.67-3.78-4.54-1.51-7.57-4.04-7.57-8.07,0-4.67,3.91-8.2,10.47-8.2,3.15,0,5.42.63,7.06,1.39l-1.39,4.92c-1.13-.5-3.03-1.26-5.8-1.26s-4.04,1.26-4.04,2.65c0,1.77,1.51,2.52,5.17,3.78,4.92,1.77,7.19,4.29,7.19,8.07,0,4.54-3.53,8.45-11.1,8.45-3.15,0-6.3-.76-7.82-1.64l1.13-5.04Z"/>
        <path class="cls-1" d="m252.78,48.92h-7.44v-5.17h21.18v5.17h-7.57v22.07h-6.3v-22.07h.13,0Z"/>
        <path class="cls-1" d="m273.46,63.92l-2.02,6.94h-6.43l8.45-27.24h8.2l8.57,27.24h-6.68l-2.14-6.94h-7.94,0Zm6.94-4.54l-1.77-5.8c-.5-1.64-1.01-3.66-1.39-5.3h-.13c-.38,1.64-.88,3.66-1.26,5.3l-1.64,5.8h6.18Z"/>
        <path class="cls-1" d="m295.78,48.92h-7.44v-5.17h21.18v5.17h-7.57v22.07h-6.3v-22.07h.13,0Z"/>
        <path class="cls-1" d="m319.23,43.75v27.24h-6.3v-27.24h6.3Z"/>
        <path class="cls-1" d="m349.87,56.99c0,8.95-5.55,14.37-13.62,14.37s-12.99-6.05-12.99-13.87,5.3-14.25,13.49-14.25,13.11,6.3,13.11,13.74h0Zm-19.92.38c0,5.3,2.52,9.08,6.68,9.08s6.68-3.91,6.68-9.21c0-4.92-2.4-9.08-6.68-9.08s-6.68,3.91-6.68,9.21Z"/>
        <path class="cls-1" d="m354.03,70.86v-27.11h7.31l5.67,9.96c1.64,2.9,3.28,6.3,4.54,9.33h.13c-.38-3.66-.5-7.31-.5-11.35v-7.94h5.67v27.24h-6.56l-5.93-10.47c-1.64-2.9-3.4-6.43-4.79-9.58h-.13c.13,3.53.25,7.44.25,11.85v8.2h-5.67v-.13Z"/>
      </g>
    </g>
  </g>
</svg>