<?xml version="1.0" encoding="utf-8"?>
<!-- Generator: Adobe Illustrator 24.3.0, SVG Export Plug-In . SVG Version: 6.00 Build 0)  -->
<svg version="1.1" id="Layer_1" xmlns="http://www.w3.org/2000/svg" xmlns:xlink="http://www.w3.org/1999/xlink" x="0px" y="0px"
	 viewBox="0 0 362.8 119.3" style="enable-background:new 0 0 362.8 119.3;" xml:space="preserve">
<style type="text/css">
	.st0{fill:#181818;}
	.st1{fill:#A9A8A9;}
	.st2{fill:#CECECE;}
	.st3{fill:#8F8E8F;}
	.st4{fill:#EEEEEE;}
	.st5{fill:#BBBBBB;}
	.st6{fill:url(#SVGID_1_);}
</style>
<g>
	<g>
		<path class="st0" d="M92.9,41.4c-0.1,0.3-0.2,0.7-0.3,1c-0.3,0.8-0.6,1.5-0.7,2.4c-0.1,0.4-0.2,0.7-0.4,1
			c-0.2,0.4-0.5,0.8-0.7,1.3c-0.1,0.2-0.2,0.2-0.4,0.1c-0.1,0-0.1-0.1-0.1-0.2c0,0,0-0.1,0.1-0.1c0.2-0.2,0.3-0.5,0.4-0.7
			c0.3-0.8,0.6-1.6,0.8-2.4c0.1-0.4,0.3-0.8,0.4-1.3c0-0.1,0-0.1,0.1-0.2c0.3-0.3,0.4-0.7,0.6-1c0-0.1,0.1-0.2,0.2-0.1
			C92.9,41.2,92.9,41.3,92.9,41.4z"/>
		<path class="st1" d="M94.4,40.7c-0.1,0.2,0,0.3,0.1,0.4c0.1,0.1,0.1,0.3,0.2,0.4c0,0.1,0,0.2-0.1,0.2c-0.1,0-0.1,0-0.2,0
			c-0.1-0.1-0.2-0.2-0.2-0.3c0-0.3-0.1-0.5,0-0.8c0,0,0-0.1,0-0.1C94.3,40.6,94.4,40.6,94.4,40.7z"/>
		<path class="st2" d="M109.8,23.9c-0.3,0.2-0.6,0.3-0.9,0.5c0-0.1,0-0.2,0.1-0.3c0.2-0.1,0.3-0.2,0.5-0.3
			C109.6,23.7,109.7,23.7,109.8,23.9z"/>
		<path class="st3" d="M86.7,47.6c-0.1,0-0.2,0-0.2-0.1c0-0.1-0.1-0.1,0-0.2c0.1-0.1,0.2-0.2,0.3-0.4c0,0.1,0,0.2,0,0.3
			C86.7,47.4,86.7,47.5,86.7,47.6z"/>
		<path class="st2" d="M108.9,24.4c-0.1,0.2-0.3,0.3-0.5,0.3c0-0.3,0-0.3,0.3-0.3C108.7,24.3,108.8,24.4,108.9,24.4z"/>
		<path class="st2" d="M92.6,54.7c-0.1-0.1-0.1-0.1-0.1-0.2c0,0,0.1,0,0.1,0C92.8,54.6,92.8,54.6,92.6,54.7
			C92.7,54.7,92.7,54.7,92.6,54.7z"/>
		<path class="st1" d="M106.7,47.3C106.7,47.3,106.7,47.3,106.7,47.3c0.1,0.1,0.1,0.1,0,0.1C106.7,47.4,106.6,47.4,106.7,47.3
			C106.6,47.4,106.7,47.4,106.7,47.3z"/>
		<path class="st3" d="M34.9,20.4c0.1,0,0,0.2,0.2,0.1c0.2-0.2,0.5-0.1,0.8-0.2c0.2-0.1,0.5-0.1,0.7-0.2c0.1,0,0.2,0,0.3,0
			c0,0,0.1,0,0.1,0.1c0,0,0,0.1,0,0.1c-0.1,0.1-0.2,0.1-0.3,0.2c-0.1,0.1,0,0.2,0.2,0.2c0.1,0.1,0.1,0.2,0,0.3
			c-0.1,0.1-0.2,0.2-0.4,0.3c-0.2,0.1-0.3,0.2-0.4,0.3c-0.3,0.3-0.3,0.6,0,1c0,0.3-0.1,0.6-0.1,1c-0.2,1.7-0.5,3.3-0.7,5
			c-0.1,1-0.3,1.9-0.5,2.9c-0.1,0.5-0.3,1-0.4,1.4c-0.1,0.2-0.2,0.3-0.3,0.5c-0.2,0.3-0.5,0.5-0.9,0.5C32,34,31.1,34,30.2,34
			c-0.7,0-1.4-0.1-2.1-0.4c-0.2-0.1-0.4-0.1-0.6,0c-0.7,0.3-1.4,0.8-2.1,1.2c-0.7,0.5-1.5,1-2.2,1.5c-0.3,0.2-0.5,0.5-0.7,0.7
			c-0.4,0.5-0.3,1.1,0.1,1.5c0.4,0.4,0.8,0.7,1.4,0.9c0.6,0.3,1.3,0.5,1.9,0.7c0.8,0.2,1.5,0.3,2.3,0.1c0.4-0.1,0.8-0.1,1.2-0.2
			c0.3,0,0.5,0,0.8,0.1c0.4,0.1,0.8,0.2,1.2,0.4c0.7,0.3,0.7,0.4,0.2,1c-0.9,1.1-1.8,2.1-2.8,3c-0.7,0.6-1.4,1.2-2.1,1.7
			c-0.4,0.3-0.9,0.6-1.4,0.9c-0.2,0.2-0.5,0.1-0.7-0.1c-0.4-0.3-0.7-0.6-1-0.9c-0.6-0.6-1.1-1.2-1.6-1.9c-0.6-0.7-1.1-1.5-1.5-2.3
			c-0.4-0.8-0.7-1.5-1-2.4c-0.1-0.3-0.1-0.6-0.1-1c0-0.4-0.2-0.7-0.3-1.1c-0.1-0.3-0.3-0.6-0.5-0.9c-0.6-0.7-1.4-1.3-2.1-1.9
			c-0.9-0.8-2-1.4-2.9-2.1c-0.3-0.2-0.6-0.5-1-0.8c-0.3-0.3-0.6-0.5-0.9-0.8c-0.3-0.3-0.6-0.6-0.9-1c-0.2-0.3-0.3-0.6-0.4-0.9
			c-0.1-0.5,0-1.1,0-1.6c0-0.1,0-0.1,0.1-0.2c0.2-0.5,0.4-1,0.7-1.5c0.1-0.2,0.2-0.3,0.4-0.5c0.1-0.1,0.2-0.1,0.3-0.1
			c0.2,0,0.4,0,0.5-0.1c0.1-0.1,0.2,0,0.2,0.1c0.1,0.1,0.1,0.3,0.1,0.5c-0.1,0.3-0.2,0.7-0.1,1c0,0.9,0.4,1.7,1,2.3
			c0.3,0.4,0.8,0.6,1.2,0.9c0.5,0.3,1.1,0.5,1.7,0.7c0.3,0.1,0.7,0.1,1,0.1c0.7,0,1.4-0.2,2.1-0.5c1-0.4,1.8-1,2.6-1.7
			c1-1,1.8-2.1,2.6-3.2c0.5-0.7,0.8-1.4,1.3-2.1c0,0.2,0.2,0.2,0.3,0.3c0.2,0.1,0.2,0.2,0.2,0.4c0,0.2,0,0.5,0.1,0.7
			c0,0.1,0.1,0.1,0.2,0.1c0.1,0.6,0.2,1.2,0.3,1.8c0.1,0.9,0.1,1.7,0.2,2.6c0,0.1,0,0.1,0,0.2c0,0.2,0,0.4,0.3,0.4
			c0.2,0,0.2-0.2,0.3-0.3c0.3-0.5,0.6-1,0.9-1.4c0.2-0.3,0.5-0.6,0.8-0.9c0.8-0.9,1.6-1.7,2.5-2.5c0.6-0.5,1.1-1,1.7-1.5
			c0.1-0.1,0.3-0.2,0.3-0.4c0.1-0.2,0.1-0.2-0.1-0.3c-0.3-0.1-0.6-0.1-1-0.2c-0.2,0-0.4-0.1-0.6-0.1c-0.1,0-0.2-0.1-0.3-0.1
			c-0.1,0-0.1-0.2,0-0.2c0.2-0.1,0.3-0.3,0.5-0.4c0.6-0.3,1.1-0.7,1.7-0.9C34.6,20.5,34.7,20.4,34.9,20.4
			C34.9,20.3,34.9,20.3,34.9,20.4z"/>
		<path class="st4" d="M42.1,34.8c0,1,0,2.1-0.1,3.1c0,0.6-0.1,1.2-0.3,1.8c-0.1,0.3-0.2,0.5-0.3,0.7c-0.1,0.1-0.2,0.1-0.3,0
			c-0.3-0.2-0.5-0.4-0.8-0.5c-0.2-0.2-0.4-0.1-0.6,0c-0.3,0.3-0.6,0.5-0.8,0.9c-0.3,0.5-0.6,0.9-0.9,1.4c-0.3,0.6-0.8,1-1.1,1.5
			c-0.1,0.1-0.2,0.2-0.3,0.4c-0.1,0.1,0,0.2,0.1,0.3c0.3,0.1,0.6,0.3,0.8,0.4c0.6,0.2,1.2,0.4,1.8,0.5c0.3,0,0.3,0.1,0.4,0.4
			c0,0.1,0,0.1,0,0.2c0,0.3-0.1,0.5-0.4,0.5c-0.4,0.1-0.7,0.1-1.1,0.2c-0.7,0.1-1.4,0.2-2.1,0.3c-0.6,0.1-1.1,0.3-1.6,0.5
			c-1,0.3-1.7,0.8-2.3,1.7c0,0.1-0.1,0.1-0.1,0.2c0,0.1,0,0.2,0.1,0.2c0.2,0,0.3,0,0.5,0c0.3,0,0.5-0.1,0.8-0.1c0.2,0,0.4-0.1,0.7,0
			c0.1,0,0.2,0.2,0.1,0.3c-0.1,0.2-0.2,0.3-0.4,0.3c-0.3,0.1-0.5,0.3-0.8,0.3c-0.5,0.1-0.9,0.3-1.3,0.5c-0.5,0.3-0.8,0.7-1.1,1.1
			c-0.3,0.4-0.6,0.8-0.9,1.2c-0.4,0.5-0.7,1-1,1.6c-0.2,0.5-0.4,0.9-0.6,1.4c0,0.1-0.1,0.1-0.1,0.2c-0.1,0.1-0.2,0.1-0.2,0
			c-0.1-0.1-0.1-0.3-0.1-0.4c-0.1-0.8-0.1-1.5,0.1-2.3c0.1-0.7,0.4-1.5,0.6-2.2c0.2-0.5,0.5-0.9,0.8-1.3c0.6-0.8,1.3-1.6,2-2.3
			c0.5-0.5,0.9-0.9,1.4-1.4c0.3-0.3,0.7-0.7,1.1-1c0.7-0.6,1.4-1.2,2.1-1.9c0.3-0.3,0.6-0.7,0.8-1.1c0.3-0.5,0.6-1,0.9-1.5
			c0.3-0.5,0.7-0.9,1.1-1.4c0.4-0.4,0.8-0.9,1.3-1.3c0.1-0.1,0.2-0.3,0.3-0.5c0.1-0.4,0.1-0.8,0.2-1.2c0.1-0.8,0.3-1.6,0.5-2.4
			c0.1-0.4,0.2-0.9,0.4-1.3c0.2-0.5,0.4-1,0.7-1.4c0-0.1,0.1-0.1,0.2-0.2c0.1-0.1,0.2,0,0.2,0.1c0,0.2,0,0.4,0,0.6
			C42.1,32.8,42.1,33.8,42.1,34.8C42.1,34.8,42.1,34.8,42.1,34.8z"/>
		<path class="st4" d="M13.5,43.1c0-0.2,0-0.5,0.1-0.8c0-0.2,0.1-0.5,0.1-0.7c0.1-1,0.1-2,0.2-3c0.1-0.9,0.2-1.8,0.5-2.7
			c0,0,0-0.1,0-0.1c0-0.1,0.1-0.1,0.2-0.1c0,0,0.1,0.1,0.1,0.1c0.3,0.4,0.7,0.9,1,1.3c0.4,0.6,0.8,1.1,1.4,1.5
			c0.5,0.5,1.1,0.8,1.7,1.1c0.1,0.1,0.2,0.1,0.4,0.1c0.2,0,0.2,0.1,0.2,0.3c-0.1,0.3-0.3,0.4-0.6,0.4c-0.3,0-0.6-0.1-0.9-0.2
			c-0.6-0.2-1.2-0.4-1.8-0.5c-0.6-0.1-0.6,0-0.5,0.6c0.2,0.8,0.3,1.5,0.6,2.2c0.3,1.1,0.6,2.3,0.6,3.4c0,0,0,0.1,0,0.1
			c0,0.6-0.2,0.5-0.6,0.4c-0.1-0.1-0.2-0.1-0.3-0.2c-0.7-0.6-1.4-1.2-1.9-1.9c0,0,0-0.1-0.1-0.1C13.5,44,13.4,43.8,13.5,43.1z"/>
		<path class="st4" d="M50.7,19.7c0.1,0,0.1-0.1,0.2-0.1c0.1,0,0.1,0,0.1-0.1c0,0,0,0,0,0c0.1,0,0.1,0,0.1-0.1
			c0.7-0.5,1.4-1,2.1-1.4c0.4-0.2,0.6-0.5,0.8-0.9c0.2-0.5,0.5-1,0.8-1.5c0.1-0.1,0.2-0.2,0.3-0.2c0.2,0,0.3,0,0.5,0
			c1.2,0.1,2.4,0.3,3.6,0.7c0.3,0.1,0.5,0.2,0.8,0.3c0.1,0,0.1,0.2,0,0.3c-0.3,0.2-0.6,0.5-0.9,0.7c-0.5,0.4-1,0.7-1.4,1.2
			c-0.1,0.1-0.1,0.1-0.2,0.2c-0.3,0.3-0.7,0.4-1.2,0.3c-0.6-0.1-1.3-0.1-1.9,0c-0.4,0.1-0.8,0.2-1.2,0.3c-0.4,0.1-0.8,0.3-1.2,0.5
			c-0.3,0.3-0.7,0.5-1.1,0.7c-0.5,0.3-1.1,0.7-1.6,1.1c-0.6,0.5-1.2,0.9-1.9,1.4c-0.1-0.1-0.1-0.3-0.1-0.4c0.2-0.3,0.4-0.6,0.7-0.8
			c0.1,0,0.1,0,0.1-0.1c0.1-0.1,0.1-0.1,0.2-0.2c0.1,0,0.1,0,0.1-0.1c0.3-0.3,0.7-0.6,1-0.9c0.1,0,0.1,0,0.1-0.1l0,0
			c0.1,0,0.2-0.1,0.2-0.2c0.2-0.2,0.5-0.4,0.7-0.5C50.6,19.8,50.7,19.7,50.7,19.7z"/>
		<path class="st4" d="M10.1,33.5c0,0.8,0,1.5-0.1,2.2c-0.1,0.9,0.1,1.7,0.4,2.5c0.4,0.8,0.7,1.7,1,2.5c0.1,0.2,0.2,0.5,0.3,0.7
			c0.1,0.4,0,0.5-0.4,0.5c-0.2,0-0.3-0.1-0.4-0.2c-0.7-0.4-1.2-1-1.6-1.6c-0.4-0.7-0.7-1.5-0.8-2.3c-0.1-0.3,0-0.6,0-0.9
			c0.1-0.6,0.2-1.2,0.3-1.7c0.2-0.8,0.4-1.6,0.6-2.3c0.1-0.3,0.3-0.6,0.4-0.9c0,0,0.1,0,0.1,0c0,0,0,0,0,0c0,0.1,0,0.2,0,0.3
			C10.1,32.7,10.1,33.2,10.1,33.5z"/>
		<path class="st4" d="M60.4,27.5c-0.1,0.5-0.1,1-0.4,1.3c-0.1,0.1-0.2,0.3-0.4,0.4c-0.2,0.1-0.3,0.2-0.5,0.2
			c-0.2,0.1-0.3,0.1-0.4-0.1c-0.1-0.1-0.1-0.2-0.1-0.3c-0.1-0.7-0.2-1.4-0.4-2.1c-0.2-0.7-0.4-1.4-0.7-2.1c-0.3-0.5-0.5-1.1-0.7-1.7
			c-0.1-0.2-0.1-0.4-0.1-0.6c0-0.1,0.1-0.2,0.2-0.2c0.3,0.1,0.5,0.2,0.8,0.4c0.6,0.5,1.2,1.1,1.7,1.8c0.4,0.6,0.7,1.2,0.9,1.9
			C60.3,26.8,60.4,27.2,60.4,27.5z"/>
		<path class="st2" d="M35.2,16.2c-1,0.3-1.9,0.6-2.9,0.9c-1,0.4-2.1,0.7-3.1,1.1c-0.5,0.2-1,0.4-1.5,0.6c0-0.2,0.2-0.3,0.1-0.5
			c-0.1,0-0.3,0-0.4,0c-0.1,0-0.1,0-0.2,0c-0.4,0-0.8,0-1.1,0.2c-0.2,0.1-0.4,0.3-0.7,0.2c-0.2-0.3-0.4-0.7-0.6-1c0,0,0-0.1,0-0.1
			c0-0.1,0.1-0.1,0.2,0c0.1,0,0.1,0.1,0.2,0.1c0.3,0.2,0.6,0.3,0.9,0.4c0.1,0.1,0.1,0.1,0.2,0c0.6,0.1,1.1-0.1,1.6-0.2
			c0.6-0.2,1.2-0.3,1.8-0.5c1.1-0.4,2.1-0.6,3.1-1.2c0.1-0.1,0.3-0.1,0.4-0.2c0.3-0.2,0.7-0.4,1.1-0.5c1-0.3,2.1-0.6,3.1-0.8
			c1.2-0.2,2.3-0.5,3.5-0.6c0.1,0.1,0.1,0.1,0.2,0c0.2,0,0.4-0.1,0.6-0.1c0,0.1,0,0.3-0.2,0.4c-0.2,0.1-0.3,0.3-0.5,0.2
			c-0.3-0.1-0.5,0-0.7,0.1c-0.1,0-0.1,0.1-0.2,0.1c-0.3,0-0.6,0-0.9,0.2c-0.1,0-0.1,0-0.2,0c-0.1,0-0.3,0-0.3,0
			c-0.1,0.1,0.1,0.2,0.1,0.4c-0.5,0.1-0.9,0.2-1.4,0.3c0-0.2,0.1-0.3,0.3-0.3c0.1,0,0.2,0,0.2,0c0.1-0.1,0.3,0,0.4-0.1
			c-0.1-0.2-0.2,0-0.4,0c0,0-0.1,0-0.2,0c-0.5,0.1-1,0.2-1.5,0.3c-0.3,0.1-0.6,0.2-0.9,0.3C35.2,15.8,35.2,15.9,35.2,16.2z"/>
		<path class="st4" d="M42.9,38.8c0.3-1.3,0.7-2.6,1.1-3.8c0.2-0.7,0.5-1.4,0.8-2.1c0.5-1.1,0.9-2.3,1.5-3.4c0,0,0-0.1,0-0.1
			c0.1,0,0.1-0.1,0.1-0.1c0,0,0-0.1,0-0.1c0.1,0,0.1-0.1,0.1-0.1c0,0,0-0.1,0-0.1c0.1,0,0.1-0.1,0.1-0.1c0.1-0.2,0.2-0.3,0.3-0.5
			c0.1,0,0.1-0.1,0.1-0.1c0-0.2,0.1-0.3,0.2-0.4c0.2,0,0.3,0,0.4,0.2c-0.3,0.8-0.6,1.6-0.9,2.4c-0.4,1-0.8,2-1.2,3
			c-0.3,0.8-0.5,1.5-0.8,2.3c-0.2,0.6-0.4,1.3-0.5,2c-0.1,0.4-0.2,0.8-0.3,1.2c0,0-0.1,0-0.1,0c-0.1,0.1-0.1,0.2-0.3,0.3
			C43.1,39,43,38.9,42.9,38.8C42.9,38.8,42.9,38.8,42.9,38.8z"/>
		<path class="st4" d="M34.9,20.4C34.9,20.3,34.9,20.3,34.9,20.4c-0.1-0.4,0-0.7,0-1c0-0.4,0.1-0.4,0.5-0.6c0.7-0.2,1.3-0.3,2-0.5
			c0.7-0.2,1.4-0.4,2.1-0.5c0.2-0.1,0.5-0.1,0.8-0.1c0.1,0,0.2,0,0.3,0.1c0.4,0.3,0.4,0.4,0,0.6c-0.3,0.1-0.6,0.2-0.9,0.3
			c-0.8,0.3-1.6,0.6-2.4,0.8c-0.6,0.2-1.3,0.4-1.9,0.6C35.2,20.2,35.1,20.3,34.9,20.4z"/>
		<path class="st1" d="M42.5,44.8c0-0.2-0.1-0.3-0.1-0.5c0.4,0,0.4,0,0.4-0.4c0-0.1,0-0.2,0-0.3c0-0.1-0.1-0.2-0.1-0.3
			c0-0.1,0-0.2,0.2-0.2c0,0,0.1,0,0.2,0c0,0,0.1,0.1,0.1,0.1c0.1,0.7,0.4,1.5,0.5,2.2c0.1,0.5,0.4,1,0.8,1.4c0,0.1,0.1,0.1,0.2,0.1
			c0.3-0.2,0.5,0,0.7,0.1c0.2,0.1,0.2,0.3,0.1,0.4c-0.2,0.2-0.4,0.4-0.6,0.4c-0.5,0.1-0.9,0.1-1.3-0.2c-0.5-0.3-1-0.7-1.4-1.2
			c-0.2-0.2-0.3-0.5-0.5-0.7c0.2,0,0.4,0,0.4-0.2c0,0,0-0.1,0.1-0.1c0.1,0,0.1,0,0.1,0.1c0,0.1,0,0.3,0,0.3c0.2,0.1,0.2,0.3,0.3,0.4
			c0.1,0.1,0.1,0.1,0.2,0.1c0.1,0,0.1-0.2,0.1-0.3C42.8,45.6,42.8,45.2,42.5,44.8z"/>
		<path class="st5" d="M43.1,43c-0.1,0-0.1,0-0.2,0c-0.2,0-0.2,0.1-0.2,0.2c0,0.1,0.1,0.2,0.1,0.3c0,0.1,0,0.2,0,0.3
			c0,0.4,0,0.4-0.4,0.4c-0.1-0.2-0.1-0.4-0.2-0.7c0.1-0.2,0.1-0.2-0.1-0.3C42.1,43.2,42,43.1,42,43c-0.2-0.5-0.3-1.1-0.1-1.6
			c0.4-0.8,0.6-1.7,1-2.5c0,0,0,0,0,0c0.1,0,0.2,0.2,0.3,0.2c0.2,0,0.2-0.2,0.3-0.3c0,0,0.1,0,0.1,0c0,0.4-0.2,0.8-0.2,1.2
			c-0.1,0.6-0.2,1.3-0.3,1.9C43,42.3,43.1,42.7,43.1,43z M42.4,42.9C42.4,42.9,42.4,42.9,42.4,42.9c0-0.2,0-0.4,0-0.6
			c0-0.5,0.1-1.1,0.3-1.6c0,0,0-0.1,0-0.1c0,0-0.1,0-0.1,0c-0.3,0.5-0.4,1-0.4,1.5C42.1,42.4,42.3,42.7,42.4,42.9z"/>
		<path class="st4" d="M40.6,18.7c0.7-0.5,1.4-0.9,2.2-1.1c1-0.3,2-0.6,3.1-0.9c0.4-0.1,0.8-0.3,1.2-0.3c0.1,0,0.1,0,0.2,0
			c0.1,0,0.1,0.1,0.1,0.2c0,0.1-0.1,0.2-0.1,0.2c-0.1,0.1-0.2,0.1-0.4,0.2c-0.6,0.2-1.2,0.5-1.8,0.7c-0.7,0.3-1.5,0.6-2.2,0.9
			c-0.2,0.1-0.3,0.2-0.5,0.2c-0.5,0.2-1,0.5-1.5,0.7c-0.1,0-0.1,0-0.2,0.1C40.7,19.2,40.7,18.9,40.6,18.7z"/>
		<path class="st4" d="M67.8,6.1c0,0.1,0,0.1-0.1,0.2c-0.5,0.3-1.1,0.5-1.7,0.7C65.5,7,64.9,7,64.4,6.8c-0.3-0.1-0.5-0.3-0.7-0.5
			c-0.2-0.2-0.2-0.4-0.1-0.6c0.2-0.5,0.8-1.2,1.5-1.1c0.2,0,0.3,0.1,0.2,0.3c0,0.2-0.1,0.3-0.1,0.5c-0.1,0.3-0.2,0.5-0.3,0.8
			c0,0.1,0.1,0.2,0.2,0.2c0.1,0,0.2,0,0.3,0C66.1,6.3,66.9,6.2,67.8,6.1C67.7,6.1,67.8,6.1,67.8,6.1z"/>
		<path class="st3" d="M19.2,24.3c0.1-0.3,0.8-0.7,1-0.9c0.1,0,0.1,0,0.2-0.1c0,0,0,0,0,0c0.1,0,0.4-0.2,0.4-0.2
			c0.1-0.1,0.2-0.2,0.4-0.3c0.8-0.4,1.6-0.9,2.3-1.4c0.3-0.2,0.5-0.4,0.8-0.6c0.1-0.1,0.3-0.3,0.5-0.3c0,0.1,0,0.2-0.1,0.3
			c-0.2,0.2-0.4,0.4-0.7,0.6c-0.1,0.1-0.2,0.2-0.2,0.3c0,0.2,0.2,0.1,0.2,0.2c0,0,0,0.1,0.1,0.1c0,0,0,0,0,0c-0.1,0-0.2,0-0.3-0.1
			c-0.2-0.1-0.1,0.2-0.2,0.3c-0.1,0.1,0,0.2,0,0.3c-0.1,0.2-0.3,0.3-0.5,0.5c-0.1-0.3-0.2-0.4-0.4-0.2c-0.3,0.3-0.6,0.4-0.9,0.5
			c-0.2,0.1-0.4,0.2-0.5,0.3c0,0,0,0.1,0,0.1C20.7,24.1,19.8,24.4,19.2,24.3z"/>
		<path class="st2" d="M70.2,12.8c0.1,0.1,0.2,0.2,0.2,0.3c0.1,0.3,0.2,0.5,0.3,0.7c0,0.1,0.1,0.2,0,0.3c0,0,0,0.1-0.1,0.1
			c0,0-0.1,0-0.1,0c-0.1-0.1-0.2-0.3-0.3-0.5c-0.1-0.3-0.3-0.6-0.6-0.8c-0.1,0-0.2-0.1-0.2-0.2c-0.1-0.6-0.1-1.2,0.2-1.7
			c0.2-0.3,0.4-0.7,0.8-0.8c0.1,0,0.1,0,0.2,0c0.1,0.1,0.3,0.1,0.5,0.1c0,0.1,0,0.1,0.1,0.1c0.1,0.2,0.1,0.3,0,0.5
			c0,0.1-0.1,0.2-0.1,0.2c-0.1,0.4-0.4,0.6-0.8,0.6c-0.1,0-0.1,0-0.1,0c0-0.1,0-0.1,0-0.2c0.1-0.1,0.2-0.1,0.3-0.2
			c0.1-0.2,0.2-0.5,0.3-0.8c0-0.1,0-0.1-0.1-0.1c-0.2,0-0.3,0.1-0.3,0.2c0,0.2-0.1,0.3-0.2,0.5c-0.1,0.1,0,0.3,0,0.4l0,0
			c-0.1,0-0.1,0.1-0.1,0.1c0,0,0,0,0,0c0,0,0,0,0,0c0,0,0,0,0.1,0c0,0,0,0,0.1,0c0,0,0.1,0,0.1,0.1c-0.1,0.2,0,0.3-0.1,0.5
			c-0.1,0.1,0,0.2,0,0.3C70.1,12.7,70.2,12.7,70.2,12.8z"/>
		<path class="st2" d="M61.8,13.6c0.5-0.5,1.1-0.9,1.7-1.3c0.8-0.6,1.6-1.2,2.2-1.8c0.1-0.1,0.2-0.2,0.4-0.3c0.1,0,0.2,0.1,0.3,0.2
			c0.1,0,0.1,0.1,0,0.2c-0.2,0.2-0.3,0.4-0.5,0.6c-0.5,0.5-1.1,1-1.7,1.4c-0.7,0.5-1.4,0.9-2.2,1.4c-0.1,0-0.1,0-0.1,0.1
			c0,0-0.1,0-0.1,0C61.8,13.8,61.8,13.7,61.8,13.6z"/>
		<path class="st1" d="M24,22.1c0,0,0-0.1-0.1-0.1c-0.1-0.1-0.3-0.1-0.2-0.2c0-0.1,0.1-0.2,0.2-0.3c0.2-0.2,0.4-0.4,0.7-0.6
			c0.1-0.1,0.1-0.2,0.1-0.3c0.1-0.1,0.2-0.3,0.3-0.4c0.3-0.1,0.4-0.2,0.4-0.5c0-0.2,0.2-0.4,0.3-0.5c0.1-0.1,0.2-0.1,0.3-0.1
			c0.1,0,0.2,0,0.3-0.1c0.1-0.1,0.3-0.2,0.5-0.2c0.1,0,0.1-0.1,0.2-0.1c0.1-0.1,0.1-0.2,0.2-0.3c0.1,0,0.1,0,0.2,0
			c0.1,0,0.3,0,0.4,0c0.1,0.2-0.1,0.3-0.1,0.5c-0.3,0.2-0.6,0.4-1,0.6c-0.3,0.2-0.6,0.4-0.8,0.6c-0.5,0.5-0.9,1-1.3,1.5
			C24.5,21.7,24.3,21.9,24,22.1z"/>
		<path class="st1" d="M35.9,22.6c-0.3-0.4-0.3-0.7,0-1c0.1-0.1,0.3-0.2,0.4-0.3c0.2-0.1,0.3-0.2,0.4-0.3c0.1-0.1,0.1-0.2,0-0.3
			c0,0,0,0,0,0c0.2,0.1,0.2,0.1,0.2-0.2c0.1-0.1,0.1-0.1,0.2-0.1c0.2,0,0.2,0,0.3-0.2c0.4-0.3,0.8-0.5,1.2-0.7
			c0.3-0.1,0.6-0.2,0.8-0.3c0,0.1,0,0.2,0,0.3c0,0.2-0.1,0.2-0.2,0.2c0,0-0.1,0-0.1,0c-0.2,0-0.4,0.1-0.5,0.3c0,0.1-0.1,0.2-0.2,0.2
			c-0.2,0-0.4,0.2-0.6,0.3c-0.4,0.1-0.4,0.2-0.5,0.6c0,0.1,0,0.1,0,0.2c-0.3,0.2-0.5,0.4-0.8,0.6C36.5,22,36.2,22.3,35.9,22.6z"/>
		<path class="st5" d="M38.8,15.3c0-0.1-0.2-0.2-0.1-0.4c0.1-0.1,0.2,0,0.3,0c0.1,0,0.1,0,0.2,0c0.3-0.2,0.6-0.2,0.9-0.2
			c0.1,0,0.2-0.1,0.2-0.1c0.2-0.1,0.4-0.2,0.7-0.1c0.2,0.1,0.3-0.1,0.5-0.2c0.1-0.1,0.2-0.2,0.2-0.4c0.1-0.1,0.2-0.1,0.4-0.1
			c0.1,0,0.1,0,0.2,0c0.3,0,0.5-0.1,0.8-0.1c0,0.2,0.2,0.3,0.3,0.4c0.1,0,0.2,0.1,0.2,0.1c-0.2,0.1-0.4,0.1-0.6,0.2c0,0,0-0.1,0-0.1
			c0-0.1-0.1-0.1-0.2-0.1c-0.1,0-0.1,0.1-0.1,0.2c0,0.1,0,0.1,0,0.2c-0.9,0.2-1.7,0.4-2.6,0.6c-0.3,0.1-0.7,0.2-1,0.3
			C39,15.3,38.9,15.3,38.8,15.3z"/>
		<path class="st5" d="M37.6,21.2c0-0.1,0-0.1,0-0.2c0-0.4,0.1-0.5,0.5-0.6c0.2,0,0.4-0.2,0.6-0.3c0.1,0,0.2-0.1,0.2-0.2
			c0.1-0.2,0.3-0.3,0.5-0.3c0,0,0.1,0,0.1,0c0.2,0,0.2-0.1,0.2-0.2c0-0.1,0-0.2,0-0.3c0.3-0.2,0.6-0.4,1-0.5c0.1,0.2,0,0.5,0,0.7
			c-0.2,0.1-0.4,0.3-0.6,0.4c-0.6,0.3-1.3,0.7-1.9,1C37.9,20.9,37.8,21.1,37.6,21.2z"/>
		<path class="st5" d="M35.2,16.2c-0.1-0.3-0.1-0.3,0.1-0.4c0.3-0.1,0.6-0.3,0.9-0.3c0.5-0.1,1-0.2,1.5-0.3c0,0,0.1,0,0.2,0
			c0.1,0,0.2-0.2,0.4,0c-0.1,0.1-0.2,0.1-0.4,0.1c-0.1,0-0.2,0-0.2,0c-0.2,0-0.3,0.1-0.3,0.3c-0.4,0.1-0.8,0.2-1.3,0.3
			C35.8,16,35.6,16.2,35.2,16.2z"/>
		<path class="st1" d="M60.5,43.1c0.2,0,0.5,0,0.7,0.1c0.2,0,0.3,0.1,0.5,0.2c0.2,0.2,0.4,0.1,0.6,0.3c0,0,0.1,0.1,0.1,0.1
			c0,0,0,0.1,0,0.1c0,0-0.1,0-0.1,0c-0.3,0-0.7-0.1-1-0.2c-0.4-0.1-0.7-0.3-1-0.4c0,0-0.1,0-0.1-0.1c0,0,0-0.1,0-0.1
			c0,0,0-0.1,0.1-0.1C60.2,43.1,60.3,43.1,60.5,43.1z"/>
		<path class="st1" d="M43.6,14.2c0-0.1-0.1-0.1-0.2-0.1c-0.2-0.1-0.3-0.2-0.3-0.4c0.2,0,0.4-0.1,0.6-0.1c0.5-0.1,1-0.1,1.5-0.1
			c0.2,0,0.4,0,0.7,0c0,0.1,0,0.1-0.1,0.1c-0.7,0.2-1.4,0.5-2.1,0.6C43.6,14.3,43.6,14.2,43.6,14.2z"/>
		<path class="st3" d="M27.2,18.3c-0.1,0.1-0.1,0.2-0.2,0.3c0,0.1-0.1,0.1-0.2,0.1c-0.2,0-0.4,0.1-0.5,0.2c-0.1,0.1-0.2,0.1-0.3,0.1
			c-0.1,0-0.3,0-0.3,0.1c-0.1,0.2-0.3,0.3-0.3,0.5c0,0.2-0.1,0.3-0.4,0.5c0.1-0.2,0.1-0.5,0.3-0.7c0.1-0.1,0.1-0.1,0.1-0.2
			c0-0.2,0-0.3,0-0.5c0.3,0.1,0.5-0.1,0.7-0.2C26.5,18.3,26.8,18.3,27.2,18.3z"/>
		<path class="st3" d="M42.5,44.8c0.3,0.4,0.4,0.8,0.4,1.2c0,0.1,0,0.2-0.1,0.3c-0.1,0-0.2-0.1-0.2-0.1c-0.1-0.1-0.1-0.3-0.3-0.4
			c0,0,0-0.2,0-0.3c0-0.1,0-0.1-0.1-0.1c0,0-0.1,0-0.1,0.1c0,0.3-0.2,0.3-0.4,0.2c-0.1-0.3-0.1-0.3,0.2-0.4
			C42.1,45.2,42.3,45,42.5,44.8z"/>
		<path class="st1" d="M26.9,25c-0.1,0-0.2,0-0.2-0.1c-0.1-0.2-0.1-0.5-0.1-0.7c0-0.2-0.1-0.3-0.2-0.4c-0.1-0.1-0.3-0.1-0.3-0.3
			c0.1-0.3,0.2-0.7,0.3-1c0,0,0-0.1,0.1-0.1c0,0,0.1,0,0.1,0c0,0.1,0.1,0.2,0.1,0.3C26.7,23.5,26.8,24.2,26.9,25z"/>
		<path class="st1" d="M21.2,23.9c0,0-0.1-0.1,0-0.1c0.2-0.1,0.3-0.2,0.5-0.3c0.3-0.1,0.6-0.3,0.9-0.5c0.2-0.2,0.4-0.1,0.4,0.2
			C22.4,23.5,21.9,23.8,21.2,23.9z"/>
		<path class="st1" d="M47.4,27.9c-0.1-0.2-0.2-0.2-0.4-0.2c0-0.3,0.2-0.4,0.4-0.6c0.1-0.1,0.2-0.2,0.3-0.4c0,0,0.1,0,0.1,0
			c0,0,0.1,0,0.1,0.1c0,0.1,0,0.1,0,0.2C47.7,27.3,47.6,27.6,47.4,27.9z"/>
		<path class="st5" d="M105.3,26.5c-0.1-0.4-0.1-0.5,0.3-0.6c0.1-0.1,0.3-0.1,0.4-0.1c0.2-0.1,0.3,0,0.5,0.1c-0.3,0.2-0.6,0.5-1,0.6
			C105.4,26.5,105.3,26.5,105.3,26.5z"/>
		<path class="st1" d="M66.4,10.2c-0.1-0.1-0.2-0.2-0.3-0.2c0.1-0.3,0.5-0.5,0.7-0.7c0,0,0.1,0,0.1,0c0,0,0,0,0,0
			c0,0.2,0,0.5-0.3,0.6C66.6,10.1,66.4,10.1,66.4,10.2L66.4,10.2z"/>
		<path class="st3" d="M61.8,13.6c0,0.1,0,0.2,0,0.3c-0.2,0.2-0.4,0.4-0.7,0.5c0,0-0.1,0-0.1,0c0,0,0-0.1,0-0.1
			C61.3,14,61.5,13.7,61.8,13.6z"/>
		<path class="st3" d="M47.4,22.7c0,0.2,0,0.3,0.1,0.4c-0.1,0.2-0.3,0.3-0.5,0.4c0,0-0.1,0-0.1,0c0,0,0-0.1,0-0.1
			C47,23.1,47.1,22.8,47.4,22.7z"/>
		<path class="st1" d="M23.5,22.7c0-0.1-0.1-0.2,0-0.3c0.1-0.1-0.1-0.2-0.1-0.2c0.1-0.2,0.2-0.2,0.4-0.1c0.1,0,0.2,0,0.3,0.1
			C23.9,22.3,23.7,22.5,23.5,22.7z"/>
		<path class="st2" d="M79.5,20.9c-0.1,0-0.1,0.1-0.2,0.1c-0.5,0-1,0-1.5-0.1c0,0,0,0-0.1-0.1c0.1,0,0.3,0,0.4,0
			C78.6,21,79.1,20.9,79.5,20.9z"/>
		<path class="st1" d="M42.6,14.5c0-0.1,0-0.1,0-0.2c0-0.1,0-0.1,0.1-0.2c0.1,0,0.1,0,0.2,0.1c0,0,0,0.1,0,0.1
			C42.8,14.5,42.7,14.5,42.6,14.5z"/>
		<path class="st0" d="M71.3,10.3c-0.2,0-0.3,0.1-0.5-0.1c0.1,0,0.2,0,0.3,0C71.2,10.2,71.3,10.2,71.3,10.3z"/>
		<path class="st4" d="M79.6,47.7c0,0-0.1-0.1-0.1-0.1c0-0.1,0.1-0.1,0.2,0c0,0,0.1,0,0.1,0C79.7,47.7,79.6,47.7,79.6,47.7z"/>
		<path class="st3" d="M37.5,20.2c0,0.2,0,0.2-0.3,0.2C37.3,20.2,37.4,20.1,37.5,20.2z"/>
		<path class="st3" d="M37,20.5"/>
		<path class="st3" d="M42.2,43.3c0.2,0.1,0.2,0.1,0.1,0.3C42.2,43.5,42.1,43.5,42.2,43.3z"/>
		<path class="st3" d="M49.9,20.3c0,0.1-0.1,0.2-0.2,0.2C49.7,20.4,49.7,20.3,49.9,20.3z"/>
		<path class="st2" d="M79.2,27.8c0.1-0.2,0.1-0.2,0.2,0C79.3,27.8,79.3,27.8,79.2,27.8z"/>
		<path class="st5" d="M107.9,25C107.9,25,107.8,25,107.9,25c-0.1,0-0.2-0.1-0.2-0.1c0-0.1,0.1-0.1,0.1-0.1
			C107.9,24.9,107.9,24.9,107.9,25C107.9,25,107.9,25,107.9,25z"/>
		<path class="st2" d="M77.2,20.7c-0.1,0-0.3,0.1-0.4-0.1C77,20.6,77.1,20.6,77.2,20.7z"/>
		<path class="st1" d="M66.4,10.2c0-0.1,0.2-0.1,0.3-0.1c0,0.1-0.1,0.1-0.1,0.2C66.5,10.3,66.4,10.3,66.4,10.2z"/>
		<path class="st1" d="M26.3,18.1c-0.1,0.1-0.1,0.1-0.2,0C26.2,18,26.2,18,26.3,18.1z"/>
		<path class="st5" d="M41.1,14c-0.1,0.1-0.1,0.1-0.2,0C40.9,14,41,14,41.1,14z"/>
		<path class="st2" d="M82.8,14c0,0.1-0.1,0.1-0.2,0.1C82.7,14,82.7,14,82.8,14z"/>
		<path class="st3" d="M51,19.5c0,0.1,0,0.1-0.1,0.1C50.9,19.5,50.9,19.5,51,19.5z"/>
		<path class="st3" d="M51.1,19.4c0,0.1-0.1,0.1-0.1,0.1C51,19.4,51,19.4,51.1,19.4z"/>
		<path class="st0" d="M21.1,18.3c0,0.1,0,0.1-0.1,0.1C21,18.4,21,18.3,21.1,18.3z"/>
		<path class="st2" d="M82.4,15.4c0,0.1,0,0.1-0.1,0.1C82.3,15.5,82.3,15.5,82.4,15.4z"/>
		<path class="st2" d="M82.6,14.2c0,0.1,0,0.1-0.1,0.1C82.5,14.3,82.6,14.2,82.6,14.2z"/>
		<path class="st1" d="M46.3,29.2c0,0.1,0,0.1-0.1,0.1C46.2,29.2,46.3,29.2,46.3,29.2z"/>
		<path class="st1" d="M42.2,13.8c0,0-0.1,0.1-0.2,0C42.1,13.8,42.1,13.8,42.2,13.8z"/>
		<path class="st1" d="M46.4,29c0,0.1,0,0.1-0.1,0.1C46.4,29,46.4,29,46.4,29z"/>
		<path class="st1" d="M46.5,28.8c0,0.1,0,0.1-0.1,0.1C46.4,28.8,46.5,28.8,46.5,28.8z"/>
		<path class="st1" d="M46.9,28.2c0,0.1,0,0.1-0.1,0.1C46.8,28.2,46.8,28.2,46.9,28.2z"/>
		<path class="st2" d="M83.2,13.7c0,0.1,0,0.1-0.1,0.1C83.1,13.7,83.2,13.7,83.2,13.7z"/>
		<path class="st3" d="M62,13.8c0-0.1,0.1-0.1,0.1-0.1C62.1,13.8,62,13.8,62,13.8z"/>
		<path class="st1" d="M70.2,12.8c-0.1,0-0.1-0.1-0.1-0.2C70.2,12.7,70.2,12.7,70.2,12.8z"/>
		<path class="st0" d="M71.4,10.4c-0.1,0-0.1-0.1-0.1-0.1C71.3,10.3,71.4,10.3,71.4,10.4z"/>
		<path class="st2" d="M72.2,52.6c0,0.1-0.1,0.1-0.1,0C72.1,52.6,72.1,52.6,72.2,52.6z"/>
		<path class="st2" d="M93,58.7c0,0,0,0.1,0,0.1C93,58.8,93,58.8,93,58.7C93,58.8,93,58.8,93,58.7z"/>
		<path class="st2" d="M67.2,52.2c0,0.1-0.1,0-0.1,0C67.1,52.2,67.2,52.2,67.2,52.2z"/>
		<path class="st3" d="M48.2,21.7c0,0.1,0,0.1-0.1,0.1C48.1,21.8,48.1,21.7,48.2,21.7z"/>
		<path class="st3" d="M48.5,21.4c0,0.1-0.1,0.1-0.1,0.1C48.4,21.5,48.4,21.4,48.5,21.4z"/>
		<path class="st2" d="M82.2,15.8c0,0.1,0,0.1-0.1,0.1C82.1,15.8,82.1,15.8,82.2,15.8z"/>
		<path class="st2" d="M79.8,20.8c0,0.1-0.1,0.1-0.2,0.1C79.7,20.8,79.8,20.8,79.8,20.8z"/>
		<path class="st2" d="M77.6,20.8c-0.1,0-0.1,0-0.2,0C77.5,20.7,77.6,20.7,77.6,20.8z"/>
		<path class="st2" d="M80.2,20.6c0,0.1-0.1,0.1-0.1,0.1C80.1,20.7,80.2,20.6,80.2,20.6z"/>
		<path class="st3" d="M49.6,20.5c0,0.1,0,0.1-0.1,0.1C49.5,20.5,49.6,20.5,49.6,20.5z"/>
		<path class="st2" d="M80.6,20.3C80.6,20.3,80.6,20.3,80.6,20.3C80.6,20.3,80.6,20.3,80.6,20.3z"/>
		<path class="st3" d="M50.7,19.7c0,0.1,0,0.1-0.1,0.1C50.6,19.7,50.6,19.7,50.7,19.7z"/>
		<path class="st5" d="M102.7,25.4c0.1,0,0.2,0,0.2,0.1c0,0.1,0,0.1-0.1,0.1C102.7,25.7,102.6,25.6,102.7,25.4
			C102.6,25.4,102.6,25.4,102.7,25.4z"/>
		<path class="st5" d="M102.3,27.9c0,0.1,0,0.1-0.1,0.1c0,0-0.1,0-0.1,0c-0.1,0,0-0.1,0-0.1c0,0,0.1-0.1,0.1-0.1
			C102.3,27.8,102.3,27.8,102.3,27.9z"/>
		<polygon class="st0" points="19.3,20.8 19.3,20.8 19.3,20.8 		"/>
		<polygon class="st1" points="18.6,21.9 18.6,21.9 18.7,21.9 		"/>
		<polygon class="st1" points="18.7,21.9 18.7,21.8 18.6,21.9 		"/>
		<g>
			<radialGradient id="SVGID_1_" cx="84.759" cy="70.1763" r="17.8457" gradientUnits="userSpaceOnUse">
				<stop  offset="0" style="stop-color:#FFFFFF"/>
				<stop  offset="0.2723" style="stop-color:#FCFCFC"/>
				<stop  offset="0.4565" style="stop-color:#F3F3F3"/>
				<stop  offset="0.6146" style="stop-color:#E4E4E4"/>
				<stop  offset="0.7571" style="stop-color:#CFCFCF"/>
				<stop  offset="0.8894" style="stop-color:#B4B3B3"/>
				<stop  offset="0.8948" style="stop-color:#B3B2B2"/>
				<stop  offset="1" style="stop-color:#B3B2B2;stop-opacity:0"/>
			</radialGradient>
			<path class="st6" d="M84.8,52.3c-8.8,0-16.1,6.3-17.6,14.7c0,0.1,0,0.2,0,0.3c0,0,0,0,0,0c-0.2,0.9-0.2,1.9-0.2,2.9
				c0,9.9,8,17.8,17.8,17.8s17.8-8,17.8-17.8C102.6,60.3,94.6,52.3,84.8,52.3z"/>
			<path class="st4" d="M12.2,94.4c-0.1-0.2-0.1-0.4,0-0.6c0.1-0.1,0.1-0.2,0.2-0.4c0.1-0.2,0.2-0.4,0.3-0.6c0-0.1,0.1-0.3,0.2-0.4
				c0.1-0.1,0.1-0.2,0.1-0.3c0.1-0.3,0.1-0.6,0.2-1c0-0.3-0.2-0.5-0.3-0.7c0-0.1-0.2-0.1-0.2-0.1c-0.3,0-0.6,0-0.9,0.1
				c-0.5,0.2-1,0.4-1.5,0.6c-0.2,0.1-0.4,0.2-0.5,0.4c0,0.1-0.5,0.3-0.7,0.3C9,91.9,7.2,93,7,93.3c0,0-0.1,0.1-0.2,0
				c-0.1-0.1,0-0.2-0.1-0.2c0.3-0.3,1-1,1-1c0.2-0.3,0.5-0.5,0.7-0.6c0.8-0.6,1.6-1.1,2.5-1.5c0.7-0.3,1.4-0.6,2.1-0.8
				c0.3-0.1,0.6-0.2,0.8-0.3c0.2-0.1,0.3,0,0.5,0.1c0.5,0.5,0.6,1,0.2,1.6c-0.3,0.5-1,1.5-1,1.5c-0.2,0.3-0.3,0.4,0,0.7
				c0.1,0.1,0.3,0.3,0.4,0.5c0.3,0.4,0.5,0.9,0.6,1.4c0,0.3,0,0.6-0.2,0.8c-0.3,0.6-0.6,1.2-1.1,1.7c-0.7,0.9-1.5,1.7-2.2,2.5
				c-0.4,0.5-0.9,0.9-1.3,1.3c0,0-0.1,0.1-0.1,0.1c-0.1,0.1-0.2,0-0.2-0.1c-0.1-0.6,0-1.1,0.3-1.6c0.6-0.8,1.1-1.5,1.7-2.2
				c0.4-0.5,0.8-1,1.1-1.6C13,95,13,95,12.6,94.6C12.5,94.5,12.4,94.4,12.2,94.4z"/>
			<path class="st4" d="M22.5,81.7c0.3,0,0.9,0,1.4,0c0.2,0,0.3-0.1,0.4-0.3c0.1-0.3,0.1-0.6,0.2-0.9c0-0.2,0.1-0.3,0.3-0.3
				c0.6-0.1,1.3-0.2,1.9-0.1c0.1,0,0.2,0,0.3,0c0.3,0,0.4,0.2,0.5,0.4c0.2,0.5,0.1,0.9,0,1.4c-0.1,0.4-0.4,0.7-0.7,0.9
				c-0.4,0.2-0.8,0.4-1.2,0.4c-1.4,0.1-2.7,0.1-4.1-0.2c-0.4-0.1-0.8-0.1-1.1-0.3c-0.2-0.1-0.4-0.2-0.3-0.5c0-0.2,0.2-0.4,0.4-0.5
				c0.1,0,0.2-0.1,0.3-0.1C21.2,81.7,21.7,81.6,22.5,81.7z"/>
			<path class="st4" d="M45.4,79.4c-0.1-0.4-0.4-0.6-0.7-0.9c-0.6-0.7-1.3-1.4-1.9-2c-0.5-0.5-1-0.9-1.4-1.4
				c-0.5-0.5-0.9-1.1-1.3-1.7c-0.1-0.1-0.1-0.3-0.2-0.4c-0.1-0.1,0-0.3,0.2-0.3c0.3,0,0.5,0.1,0.8,0.1c1.1,0.1,2.1,0.2,3.2,0.3
				c0,0,0.1,0,0.1,0c0.3,0,0.3,0.2,0.2,0.4c-0.1,0.1-0.1,0.2-0.2,0.2c-0.5,0.5-0.6,1.1-0.3,1.7c0.2,0.5,0.4,0.9,0.6,1.4
				c0.5,0.9,1,1.8,1.7,2.7c-0.1,0.1-0.2,0.2-0.2,0.3c0,0.1-0.2,0.1-0.2,0C45.5,79.7,45.6,79.5,45.4,79.4z"/>
			<path class="st1" d="M45.4,79.4c0.2,0,0.2,0.2,0.3,0.3c0.1,0.1,0.2,0.1,0.2,0c0-0.1,0.2-0.2,0.2-0.3c0.3,0.2,0.5,0.4,0.8,0.6
				c0.1,0.1,0.2,0.1,0.3,0.2c-0.2,0.2-0.3,0.3-0.5,0.2c-0.1,0-0.1-0.1-0.2-0.1c0,0-0.1,0-0.1,0c0,0,0,0.1,0,0.1
				c0.2,0.1,0.2,0.3,0.1,0.5c-0.1,0.1,0,0.2,0,0.3c0,0.1-0.1,0.1-0.2,0.2c-0.1-0.3-0.3-0.6-0.5-0.8c-0.1-0.1-0.1-0.2-0.2-0.3
				c-0.1-0.1,0-0.3-0.2-0.4c-0.1,0-0.3,0-0.5,0c-1,0.1-2,0.3-3,0.5c-0.5,0.1-1.1,0.2-1.6,0.2c-0.3,0-0.6-0.1-0.8-0.3
				c-0.2-0.2-0.4-0.3-0.7-0.4c-0.5-0.2-0.9-0.5-1.4-0.7c-0.1,0-0.1-0.1-0.1-0.2c0.3,0.1,0.6,0.2,0.8,0.2c1.1,0.2,2.2,0.3,3.3,0.2
				c1.1-0.1,2.2-0.2,3.2-0.1C45.1,79.5,45.2,79.4,45.4,79.4z"/>
			<path class="st4" d="M51.2,76c0,0.1,0,0.1,0,0.1c0,0.6-0.1,0.7-0.7,0.8c-0.2,0-0.3,0-0.4-0.2c-0.1-0.1-0.1-0.2-0.1-0.3
				c-0.3-0.6-0.5-1.2-0.8-1.8c-0.2-0.4-0.4-0.9-0.5-1.3c-0.1-0.1-0.1-0.3-0.1-0.4c0-0.1,0-0.2,0.1-0.2c0.9,0,1.7,0.3,2,1.1
				C51,74.6,51.2,75.3,51.2,76z"/>
			<path class="st3" d="M46.5,81.4c0.1,0,0.2,0,0.2-0.2c0-0.1-0.1-0.2,0-0.3c0.1-0.2,0-0.4-0.1-0.5c0,0,0-0.1,0-0.1c0,0,0.1,0,0.1,0
				c0.1,0,0.1,0.1,0.2,0.1c0.2,0.1,0.3,0.1,0.5-0.2c0.3,0.2,0.7,0.3,1,0.5c0.1,0.1,0.3,0.1,0.4,0.2c0.1,0,0.2,0.1,0.3,0.2
				c0.3,0.2,0.3,0.2,0.1,0.5c-0.4,0.4-0.8,0.7-1.2,1.1c-0.3,0.3-0.5,0.6-0.9,0.8c-0.2,0.1-0.4,0.3-0.6,0.4c-0.1,0-0.1,0.1-0.2,0.1
				c-0.3,0.1-0.6,0.1-0.9,0.1c0-0.1,0-0.1,0.1-0.2c0.6-0.4,1.1-1,1.2-1.7C46.5,81.9,46.4,81.6,46.5,81.4z"/>
			<path class="st4" d="M34.5,66.9c0-0.2,0-0.4,0-0.6c0-0.1,0.1-0.2,0.2-0.1c0.6,0.4,1.1,0.8,1.2,1.6c0.1,0.5,0.2,0.9,0.3,1.4
				c0,0.1,0.1,0.3,0,0.4c-0.2,0.1-0.4,0-0.5-0.1c-0.2-0.1-0.3-0.3-0.5-0.5c-0.2-0.2-0.3-0.5-0.5-0.7c-0.2-0.3-0.2-0.6-0.3-0.9
				C34.5,67.2,34.5,67.1,34.5,66.9C34.5,66.9,34.5,66.9,34.5,66.9z"/>
			<path class="st0" d="M19.3,24.3c-0.9,0.3-1.8,0.4-2.8,0.4c-0.7,0-1.4,0-2.1-0.1c-0.1,0-0.3,0-0.4,0c-0.7-0.1-1.4,0.1-2.1,0.5
				c-0.3,0.2-0.6,0.4-0.9,0.6c-0.5,0.4-0.8,0.9-1,1.5c-0.3,1-0.7,2-0.9,3c-0.2,0.8-0.5,1.6-0.7,2.4c-0.3,1-0.5,2-0.8,3
				c-0.1,0.5-0.1,1-0.1,1.5c0,0.1,0,0.1,0,0.2c0,1.2,0.4,2.3,0.8,3.4c0.4,1,0.8,2,1.1,3.1c0.3,1.1,0.7,2.2,1,3.3
				c0.2,0.7,0.4,1.4,0.5,2.1c0.2,0.7,0.4,1.3,0.9,1.9c0.3,0.3,0.6,0.5,0.9,0.7c0.9,0.6,1.8,1,2.8,1.5c0.9,0.5,1.9,1,2.7,1.6
				c0.1,0.1,0.3,0.2,0.4,0.3c0.6,0.4,1.2,0.3,1.9,0.2c0.9-0.1,1.7-0.4,2.4-0.8c0.9-0.4,1.9-0.7,3-0.8c0,0,0,0,0.1,0
				c0.7,0,0.6,0.1,0.6,0.5c0,0.6,0.2,1.2,0.2,1.7c0,0.4,0.1,0.8,0.2,1.2c0,0.3,0.1,0.6,0.1,0.9c0.1,0.3,0,0.6-0.1,0.9
				c-0.4,1-0.9,2.1-1.3,3.1c-0.4,1-0.8,2-1.2,2.9c-0.1,0.2-0.2,0.4-0.3,0.7c-0.1,0.3,0,0.4,0.2,0.5c0.4,0.2,0.8,0.4,1.2,0.5
				c0.4,0.2,0.8,0.4,1.2,0.4c0.2,0,0.2,0.1,0.1,0.3c-0.5,1-0.9,2-1.4,3c-0.2,0.5-0.4,1-0.6,1.5c-0.2,0.5-0.2,0.9-0.2,1.4
				c0.1,1.4-0.3,2.8-0.8,4.1c-0.2,0.5-0.5,1.1-0.7,1.6c-0.1,0.2-0.2,0.3-0.5,0.3c-0.2,0-0.5,0-0.7-0.1c-0.4-0.2-0.9-0.4-1.2-0.8
				c-0.2-0.2-0.4-0.5-0.6-0.7c-0.4-0.5-1-0.8-1.7-0.8c-0.6,0-1.2,0.1-1.7,0.5c-0.5,0.3-1,0.7-1.3,1.2c-0.4,0.5-0.7,1-1.1,1.6
				c-0.5,0.8-1.1,1.5-1.8,2.1c-0.3,0.3-0.6,0.6-0.9,0.9c-0.4,0.3-0.8,0.5-1.2,0.7c-0.4,0.2-0.8,0.4-1.2,0.5
				c-0.3,0.1-0.5,0.2-0.8,0.3c-0.5,0.1-0.9,0.4-1.2,0.8C7.2,85.7,7,86,6.9,86.3c-0.9,1.5-1.6,3.2-2.2,4.9c-0.1,0.3-0.1,1.1-0.1,1.2
				c0.2,0.4,0.5,0.8,1,1c0.1,0.1,0.3,0.2,0.4,0.3c0.2-0.1,0.3-0.1,0.4-0.2c0.1-0.1,0.3-0.2,0.4-0.3c0.3-0.3,0.6-0.7,0.9-0.9
				c0-0.1,0.6-0.5,0.8-0.7c0.8-0.6,1.6-1.1,2.5-1.5c0.7-0.3,1.4-0.6,2.1-0.8c0.3-0.1,0.6-0.2,0.8-0.3c0.2-0.1,0.3,0,0.5,0.1
				c0.5,0.5,0.6,1,0.2,1.6c-0.3,0.5-1,1.5-1,1.5c-0.2,0.3-0.3,0.4,0,0.7c0.1,0.1,0.3,0.3,0.4,0.5c0.3,0.4,0.5,0.9,0.6,1.4
				c0,0.3,0,0.6-0.2,0.8c-0.3,0.6-0.6,1.2-1.1,1.7c-0.7,0.9-1.5,1.7-2.2,2.5c-0.4,0.5-0.9,0.9-1.3,1.3c0,0-0.3,0.1-0.3,0
				c-0.1-0.6,0-1.1,0.3-1.6c0.6-0.8,1.1-1.5,1.7-2.2c0.4-0.5,0.8-1,1.1-1.6C13,95,13,95,12.6,94.6c-0.1-0.1-0.2-0.2-0.4-0.2
				c-0.5,0.6-1,1.1-1.5,1.7c-0.4,0.5-1,0.8-1.6,1c-0.5,0.1-1,0.3-1.5,0.4c-0.6,0.1-1.2,0.2-1.8,0.2c-0.3,0-0.6,0-0.9,0.1
				c-0.3,0.1-0.5,0.2-0.6,0.4c-0.4,0.5-0.5,1.1-0.7,1.7c-0.1,0.7-0.1,1.3,0.1,2c0.2,0.5,0.4,1,0.7,1.4c0.4,0.6,0.8,1.3,0.9,2
				c0.1,0.5,0.1,1.1,0,1.6c0,0.3-0.1,0.7-0.1,1c0,0.5-0.1,1-0.2,1.5c-0.2,0.8-0.2,1.6,0,2.4c0.1,0.5,0.3,1.1,0.4,1.6
				c0.1,0.3,0.2,0.6,0.4,0.9c0.3,0.4,0.5,0.9,0.8,1.3c0.3,0.5,0.7,1,1.1,1.5c0.3,0.3,0.5,0.5,0.8,0.7c0.3,0.2,0.6,0.3,0.9,0.3
				c0.2,0,0.3,0,0.5,0c0.3-0.1,0.5-0.2,0.6-0.6c0.1-0.5,0.1-1,0.1-1.4c0.1-1,0.1-2,0-2.9c0-0.4,0-0.8,0-1.2c0-0.3,0-0.5,0.1-0.8
				c0.2-0.7,0.4-1.3,0.8-2c0-0.1,0.1-0.2,0.1-0.2c0.3-0.8,0.7-1.5,1.1-2.2c0.4-0.8,0.9-1.6,1.4-2.4c0.2-0.2,0.3-0.5,0.5-0.7
				c0.6-0.8,1.3-1.5,1.9-2.3c0.4-0.6,0.8-1.2,1-1.8c0-0.1,0.2-0.4,0.3-0.4c0.1,0,1,0.6,1.3,0.8c0.1,0.1,0.3,0.1,0.4,0
				c0.4-0.2,0.7-0.5,1-0.8c1.5-1.5,2.9-3,4.4-4.5c0.6-0.6,1.2-1.3,1.8-1.9c0.5-0.5,1-1,1.6-1.4c0.2-0.2,0.5-0.2,0.8-0.2
				c0.6,0,1.2,0,1.8,0.1c1.3,0.1,2.6,0.1,4,0.2c1.2,0.1,2.4,0.2,3.6,0.3c0,0,0.1,0,0.1,0.1c0,0-1,1-1.5,1.5
				c-0.2,0.2-0.4,0.4-0.6,0.6c-0.1,0.1-0.4,0.4-0.5,0.5c-0.8,0.8-1.6,1.7-2.5,2.5c-1,1-1.9,1.9-2.9,2.9c-0.8,0.8-1.6,1.6-2.3,2.3
				c-1,0.9-1.9,1.9-2.9,2.8c-0.4,0.4-1.3,1.4-1.4,1.5c-0.2,0.3-0.2,0.4,0,0.6c0.2,0.2,0.4,0.4,0.7,0.7c0.1,0.1,0.2,0.1,0.4,0
				c0.2-0.2,0.3-0.3,0.5-0.5c0.8-0.9,1.7-1.8,2.6-2.6c1-0.9,1.9-1.9,2.9-2.8c0.5-0.5,1.1-1,1.6-1.6c0.5-0.5,1.1-1.1,1.6-1.6
				c0.5-0.5,1-1,1.6-1.6c0.5-0.5,1.1-1.1,1.6-1.6c1-1,1.9-2,2.9-2.9c0.1-0.1,0.6-0.6,0.8-0.6c0.5,0,1.1,0,1.6,0.1
				c0.7,0.1,1.3,0.1,2,0.1c0.8,0,1.7,0.1,2.5,0.1c0.8,0.1,1.7,0.2,2.5,0.2c0.4,0,0.9,0.1,1.3,0.1c1.3,0.1,2.7,0.2,4,0.2
				c0.4,0,1.5-0.1,1.6-0.1c0.9-0.2,1.7-0.7,2.3-1.4c0.2-0.2,0.4-0.5,0.5-0.7c0.6-0.8,1.1-1.6,1.4-2.5c0-0.1,0.1-0.2,0.1-0.3
				c0.3-0.7,0.5-1.4,0.3-2.2c-0.1-0.4-0.2-0.9-0.3-1.3c0-0.2-0.2-0.4-0.1-0.6c-0.1-0.3-0.2-0.7-0.3-1c-0.1-0.1-0.4-1.8-0.4-1.8
				c-0.2-0.3-0.2-0.7-0.3-1.1c-0.2-0.9-0.5-1.9-0.7-2.8c-0.2-0.8-0.4-1.5-0.6-2.3c0-0.1,0-0.1-0.1-0.2c0-0.2,0-0.3,0.1-0.4
				c0.2-0.1,0.4-0.3,0.5-0.4c0.9-0.8,1.8-1.6,2.7-2.4c1-1,2-2,3-2.9c0.3-0.3,0.6-0.6,0.9-0.9c0.1-0.1,0.6-0.5,0.6-0.6
				c0,0,1.6-1.6,2.4-2.3c0.5-0.5,1-1,1.5-1.5c0.6-0.6,1.1-1.1,1.7-1.6c0.3-0.3,0.5-0.5,0.8-0.8c1-0.9,1.9-1.9,2.8-2.9
				c0.2-0.2,0.4-0.4,0.6-0.6c0,0,0.1,0,0.1,0c0,0,0.1,0.1,0.1,0.1c0,0.3,0.1,0.6,0.1,0.9c0,0.6,0.1,1.1,0.4,1.6
				c0.1,0.1,0.1,0.3,0.2,0.4c0.3,0.4,0.5,0.7,0.8,1.1c0.2,0.2,0.3,0.5,0.4,0.8c0.2,0.4,0.3,0.8,0.5,1.1c0.1,0.2,0.1,0.5,0.1,0.7
				c-0.1,0.8-0.2,1.6-0.4,2.4c-0.2,1.1-0.3,2.2-0.5,3.3c-0.1,0.6-0.2,1.2-0.2,1.8c0,0.6-0.2,1.2-0.3,1.8c-0.1,0.8,0,1.5,0.5,2.2
				c0.2,0.3,0.5,0.5,0.8,0.7c0.2,0.1,0.5,0.2,0.7,0.3c0.1,0,0.2,0.2,0.1,0.3c-0.1,0.3-0.3,0.5-0.4,0.7c-0.5,0.5-0.9,1-1.3,1.6
				c-0.1,0.2-0.2,0.4-0.3,0.6c0.1,0.1,0.2,0.1,0.3,0.1c0.5-0.1,0.9-0.1,1.4-0.1c3.3,0,6.6,0,9.9,0c0.6,0,1.2,0,1.8,0.1
				c0.2,0,0.4,0.1,0.6,0.1c0-0.1,0-0.2,0-0.2c-0.4-0.5-0.8-1-1.2-1.5c-0.2-0.3-0.5-0.6-0.7-0.9c0,0-0.1-0.1-0.1-0.1
				c-0.1-0.2-0.1-0.3,0.1-0.3c0.3-0.1,0.5-0.2,0.7-0.3c0.2-0.1,0.4-0.3,0.6-0.4c0.5-0.4,0.7-0.9,0.7-1.5c0-0.6,0-1.2-0.1-1.8
				c-0.3-1.4-0.4-2.9-0.6-4.3c-0.1-1.1-0.3-2.3-0.5-3.4c0-0.3-0.1-0.6-0.2-0.9c0-0.3,0-0.5,0.1-0.8c0.1-0.2,0.2-0.4,0.2-0.5
				c0.1-0.4,0.3-0.8,0.6-1.1c0.2-0.3,0.4-0.5,0.6-0.7c0.5-0.5,0.8-1.1,0.9-1.8c0,0,0-0.1,0-0.1c0,0,0,0,0,0c0-0.3,0-0.7,0-1
				c0-0.1-0.1-0.2-0.1-0.3c0-0.8-0.1-1.7-0.3-2.5c0-0.1-0.1-0.1,0-0.2c-0.1-0.1-0.1-0.1-0.1-0.2c0,0,0-0.1-0.1-0.1
				c-0.2-0.9-0.6-1.7-1-2.5c-0.6-1.1-1.3-2-2.3-2.8c-0.7-0.5-1.4-1-2.2-1.2c-0.1-0.1-0.3-0.1-0.4-0.2c-0.1,0-0.2,0-0.2-0.1
				c0-0.1-0.1-0.1,0-0.2c0.1-0.1,0.2-0.2,0.3-0.4c0.3-0.4,0.6-0.7,1-1.1c0.3-0.3,0.6-0.6,0.9-1c0.5-0.6,1.1-1.1,1.6-1.7
				c0.7-0.7,1.3-1.4,2-2.1c0.3-0.3,0.6-0.6,0.8-0.8c0,0,0.1,0,0.1,0c-0.1,0.3,0,0.7,0,1c0,0.3,0,0.6-0.1,0.9c0,0.3-0.1,0.6-0.2,0.9
				c-0.1,0.3-0.2,0.6-0.3,0.9c-0.1,0.3-0.2,0.7-0.1,1.1c0.1,0.5,0.1,1.1,0.1,1.6c0,0.1,0.1,0.2,0.2,0.2c0.2,0,0.3,0.1,0.5,0.1
				c0.3,0,0.4,0.1,0.5,0.4c0,0.1,0.1,0.3,0.1,0.4c0.1,0.2,0.3,0.3,0.6,0.4c0.2,0,0.4-0.1,0.4-0.3c0-0.1,0-0.2,0-0.3
				c0-0.2,0-0.3,0-0.5c0-0.1,0.1-0.2,0.2-0.2c0.1,0,0.1,0,0.2,0c0.6,0,1.1-0.2,1.7-0.3c0.2-0.1,0.3-0.2,0.2-0.4
				c0-0.1-0.1-0.2-0.1-0.3c-0.1-0.2-0.2-0.3-0.3-0.5c-0.5-1-0.9-2.1-1.3-3.2c-0.2-0.6-0.6-1.1-1-1.6c-0.1,0.2,0,0.3,0.1,0.4
				c0.1,0.1,0.1,0.3,0.2,0.4c0,0.1,0,0.2-0.1,0.2c-0.1,0-0.1,0-0.2,0c-0.1-0.1-0.2-0.2-0.2-0.3c0-0.3-0.1-0.5,0-0.8c0,0,0-0.1,0-0.1
				c-0.1-0.1-0.1-0.2-0.2-0.3c-0.2-0.4-0.2-0.5,0.1-0.8c0.4-0.5,0.8-0.9,1.3-1.3c0.6-0.5,1.1-1,1.7-1.5c0.6-0.5,1.1-1,1.7-1.5
				c0.7-0.6,1.4-1.2,2.1-1.9c0.4-0.4,0.8-0.8,1.2-1.1c0,0,0.1-0.1,0.1,0c0.1,0,0.1,0.1,0.1,0.1c0,0.2,0,0.4,0,0.6
				c0.1,0.3,0.3,0.4,0.5,0.3c0.1-0.1,0.3-0.2,0.4-0.3c0.1-0.1,0.2-0.2,0.4-0.4c0.1-0.2,0.2-0.4,0.4-0.6c0.3-0.4,0.6-0.8,0.9-1.2
				c0.4-0.5,0.8-1.1,1.2-1.6c0.6-0.7,1.1-1.5,1.7-2.2c0.5-0.6,1-1.2,1.5-1.9c0.3-0.4,0.5-0.7,0.7-1.1c-0.1,0-0.1,0-0.2,0
				c-0.3,0.2-0.6,0.3-0.9,0.5c0,0,0,0,0,0c-0.1,0.2-0.3,0.3-0.5,0.3c0,0.1-0.1,0.1-0.2,0.1c-0.1,0.1-0.1,0.2-0.3,0.2c0,0,0,0,0,0
				c-0.3,0.2-0.7,0.4-1,0.6c-0.1,0.1-0.3,0.2-0.4,0.2c-0.3,0.2-0.6,0.5-1,0.6c-0.1,0-0.2,0.1-0.2,0.1c-0.3,0.2-0.5,0.4-0.8,0.5
				c-1,0.6-1.9,1.1-2.9,1.7c-0.5,0.3-1,0.5-1.6,0.8c-0.1,0-0.2,0.1-0.3,0.2c-0.1,0-0.1,0.1,0,0.2c0.1,0.1,0.2,0.2,0.3,0.2
				c0.3,0.1,0.6,0.3,0.9,0.4c0.2,0.1,0.2,0.2,0.1,0.3c-0.2,0.2-0.4,0.4-0.6,0.6c-0.6,0.5-1.1,1-1.7,1.6c-0.8,0.7-1.5,1.5-2.3,2.2
				c-0.5,0.5-1.1,1-1.6,1.6c-0.6,0.6-1.1,1.1-1.7,1.7c-0.1,0.1-0.2,0.2-0.3,0.3c-0.1,0.1-0.2,0.1-0.3,0c-0.1,0-0.1-0.1-0.2-0.1
				c-0.1,0-0.2,0-0.3,0.1c-0.4,1-1.2,1.8-1.9,2.5c-0.7,0.7-1.4,1.4-2.2,2.1c-0.3,0.3-0.7,0.7-1,1c-0.5,0.5-1,1-1.6,1.5
				c-0.2,0.2-0.4,0.4-0.6,0.7c-0.2,0.3-0.3,0.3-0.5,0.1c-0.4-0.2-0.7-0.4-1.1-0.5c-0.3-0.1-0.7-0.1-1,0c-0.4,0.1-0.8,0.3-1.2,0.5
				c-0.3,0.2-0.7,0.4-1.1,0.6c0,0.1-0.1,0.1-0.2,0.1c-0.2,0.2-0.4,0.3-0.7,0.4c-0.4,0.3-0.8,0.4-1.2,0.6c-0.2,0.1-0.5,0.1-0.8,0
				c-0.9-0.2-1.8-0.5-2.6-0.7c0,0-0.1,0-0.1,0c-1.1-0.3-2.1-0.7-3.1-1.1c-0.7-0.3-1.4-0.5-2.1-0.8c-0.3-0.1-0.6-0.2-0.8-0.3
				c-0.7-0.2-1.4-0.5-2.1-0.7c-0.5-0.2-0.9-0.3-1.4-0.5c-0.1,0-0.2-0.1-0.1-0.2c0.2-0.2,0.4-0.4,0.6-0.6c0.6-0.5,1.1-1,1.7-1.5
				c0.6-0.5,1.2-1.1,1.8-1.6c0.3-0.3,0.7-0.6,1-1c0.7-0.6,1.4-1.3,2.2-1.8c0.1-0.1,0.2-0.2,0.3-0.3c0.2-0.2,0.4-0.4,0.4-0.7
				c0.1-0.5,0.3-1,0.5-1.5c0.1-0.3,0.2-0.6,0.3-0.8c0.1-0.2,0.1-0.3,0.1-0.5c0.1-0.3,0.2-0.4,0.4-0.6c0.3-0.4,0.7-0.4,1.2-0.5
				c0.1,0,0.1,0.1,0.1,0.2c0,0.3-0.1,0.5-0.3,0.7c-0.2,0.3-0.3,0.7-0.3,1.1c0,0.4-0.1,0.7-0.3,1.1c-0.1,0.2-0.2,0.5-0.3,0.7
				c0,0.2,0,0.4,0.2,0.4c0.4,0.1,0.6,0.4,0.8,0.6c0.4,0.3,0.4,0.7,0,1c0,0-0.1,0.1-0.2,0.1c-0.2,0.4-0.2,0.6,0.3,0.7
				c0.8,0.2,1.5,0.4,2.3,0.2c0.1,0,0.2,0,0.3,0c0.2,0,0.4,0,0.6-0.1c0.2,0,0.3-0.1,0.3-0.3c0.1-0.2,0.2-0.4,0.2-0.6
				c0,0,0-0.1,0.1-0.1c0.1,0,0.1,0,0.1,0.1c0,0.1,0.1,0.2,0.1,0.3c0.1,0.3,0.3,0.5,0.6,0.4c0.2,0,0.4,0,0.5,0.1
				c0.1,0.1,0.1,0.1,0.2,0c0.1-0.1,0.2-0.1,0.3-0.1c0.2-0.1,0.4-0.2,0.6-0.3c0.4-0.2,0.8-0.5,1.2-0.8c0.2-0.2,0.2-0.4,0.2-0.7
				c0-0.2-0.1-0.4-0.2-0.5c-0.4-0.7-0.8-1.4-1.2-2.1c-0.1-0.2-0.2-0.5-0.3-0.8c-0.1-0.2-0.1-0.4-0.2-0.5c-0.3-0.6-0.1-1.1,0.2-1.6
				c0.2-0.4,0.5-0.7,0.8-1c0.1-0.2,0.3-0.3,0.4-0.5c0.3-0.4,0.3-0.8,0-1.3c-0.2-0.3-0.4-0.7-0.6-1c-0.1-0.3-0.4-0.4-0.7-0.5
				c-0.1,0-0.3,0-0.4-0.1c-0.1,0-0.3,0-0.4-0.1c-0.3-0.1-0.6-0.2-0.8-0.2c-0.1,0-0.1,0-0.2,0c-0.1,0-0.2,0.1-0.2,0
				c-0.1-0.1-0.2-0.2-0.3-0.3c-0.6-0.8-1.3-1.5-2-2.2c-0.9-0.9-1.7-1.8-2.6-2.6c-0.3-0.3-0.5-0.5-0.7-0.8c-0.3-0.4-0.3-0.8,0.2-1.1
				c0.4-0.3,0.9-0.5,1.5-0.4c0.6,0.1,1.2,0.1,1.8,0.3c0.1,0,0.3,0,0.4,0.1c0.1,0,0.2,0,0.2,0.1c0.1,0,0.6,0.1,0.7,0.1
				c0.4,0.1,0.9,0,1.4,0.1c0,0,0.2-0.1,0.3-0.1c0.1-0.1,0.4-0.2,0.4-0.2c0.1-0.1,0.4-0.4,0.4-0.4c0.3-0.3,0.4-0.6,0.5-1
				c0-0.3,0.1-0.5,0.1-0.8c0-0.2,0-0.3,0.2-0.5c0.3-0.3,0.3-0.7,0.1-1.1c0,0-0.3-0.2-0.3-0.4c0-0.2,0.2-0.2,0.3-0.2
				c0,0,0.2-0.2,0.3-0.3c0-0.1,0.3-0.2,0.3-0.2l0,0c0-0.1,0.2-0.2,0.2-0.3c0-0.1,0-0.1,0.1-0.1c0.1-0.2,0.1-0.4,0.1-0.6
				c0-0.2,0-0.4,0-0.5c0-0.1,0.2-0.3,0.3-0.3c0.1-0.1,0.4-0.3,0.4-0.3l0.6-0.7c0-0.2,0.1-0.3,0.1-0.5c-0.2-0.3-0.5-0.6-0.8-0.9
				c-0.4-0.3-0.7-0.6-1.1-1c-0.1-0.1-0.2-0.2-0.2-0.4c-0.2-0.1-0.2-0.4-0.4-0.5c0.4-0.4,0.7-1,1-1.5c0-0.3-0.2-0.5-0.4-0.7
				c-0.2-0.2-0.2-0.4-0.2-0.7c0-0.2,0.1-0.5,0.2-0.7c0.2-0.4,0.2-0.9-0.1-1.3c0,0-0.2-0.2-0.2-0.1c0,0.1-0.1,0.2-0.2,0.1
				c-0.1,0-0.2-0.2-0.2-0.3c0.1-0.2,0.1-0.4,0.1-0.7c0-0.3-0.1-0.5-0.3-0.7c-0.2-0.3-0.5-0.5-0.8-0.7C79.6,2.3,79,2,78.5,1.7
				c-0.3-0.2-0.6-0.2-0.9-0.3c-0.6-0.1-1.2-0.2-1.8-0.2c-1,0-1.9,0-2.9,0c-1.5,0-3,0.1-4.4,0.2c-1.7,0-3,0.8-4,2
				c-0.3,0.3-0.6,0.7-0.9,1.1c-0.3,0.4-0.5,0.9-0.4,1.4C63.2,6,63.1,6,63,6.1c-0.1,0-0.2,0-0.3-0.1c-0.3-0.1-0.6-0.3-0.8-0.4
				c-0.3-0.2-0.7-0.5-1-0.7c-0.2-0.1-0.4-0.2-0.6-0.3c-0.1-0.1-0.3,0-0.3,0.2c0,0.5-0.2,1-0.3,1.5c-0.3,0.7-0.3,1.5-0.2,2.3
				c0,0.1,0,0.3,0.1,0.4c0.1,0.3,0.3,0.4,0.6,0.5c0.4,0.1,0.9,0.2,1.3,0.2c0.1,0,0.2,0,0.4,0c0.2,0,0.3,0.1,0.2,0.3
				c-0.4,0.7-0.9,1.4-1.3,2.2c-0.4,0.7-0.8,1.5-1.2,2.3c-0.1,0.2-0.2,0.3-0.4,0.2c-1-0.3-2-0.4-3-0.6c-1.3-0.3-2.6-0.4-3.9-0.6
				c-1.1-0.2-2.2-0.4-3.3-0.5c-0.6-0.1-1.1-0.2-1.7-0.2c-0.4,0-0.8,0-1.2,0c-0.6,0-1.2,0.1-1.7,0.2c-0.6,0.1-1.2,0.2-1.8,0.2
				c-1.1,0.1-2.3,0.4-3.4,0.6c-0.4,0.1-0.8,0.1-1.3,0.2c-1.4,0.3-2.7,0.5-4.1,0.8c-0.8,0.2-1.7,0.2-2.5,0.3c-0.7,0.1-1.3,0.2-2,0.3
				c-0.4,0-0.7,0.1-1.1,0.1c-0.8,0.1-1.5,0.1-2.3,0.2c-0.7,0.1-1.5,0.2-2.2,0.4c-0.3,0.1-0.6,0.1-1,0.2c-0.3,0.1-0.5,0.2-0.7,0.4
				c-0.5,0.6-0.9,1.3-1.2,2c0,0,0,0,0,0c-0.3,0.5-0.6,1-0.6,1c-0.3,0.4-0.5,0.8-0.7,1.3c0.2,0,0.3-0.1,0.4-0.3c0,0,0.1-0.1,0.1-0.2
				c0.5-0.6,1.3-1.9,1.6-2.4c0.2-0.3,0.4-0.5,0.7-0.8c0.3-0.3,0.6-0.2,0.9,0c0.7,0.5,1.1,1.2,1.4,2c0.2,0.4,0.1,0.4-0.2,0.7
				c-0.3,0.2-0.5,0.4-0.8,0.6c-0.7,0.5-1.4,1.1-2.1,1.6C20.9,22.4,19.5,23.9,19.3,24.3c0,0.1,1.3-0.9,1.4-1c0.1-0.1,0.4-0.5,0.6-0.5
				c0.8-0.4,1.6-0.9,2.3-1.4c0.3-0.2,0.5-0.4,0.8-0.6c0.1-0.1,0.3-0.3,0.5-0.3c0.1-0.1,0.2-0.3,0.3-0.4c0.1-0.2,0.1-0.5,0.3-0.7
				c0.1-0.1,0.1-0.1,0.1-0.2c0-0.2,0-0.3,0-0.5c-0.2-0.3-0.4-0.7-0.6-1c0,0,0-0.1,0-0.1c0-0.1,0.1-0.1,0.2,0c0.1,0,0.1,0.1,0.2,0.1
				c0.3,0.2,0.6,0.3,0.9,0.4c0.1,0,0.1,0,0.2,0c0.6,0.1,1.1-0.1,1.6-0.2c0.6-0.2,1.2-0.3,1.8-0.5c1.1-0.4,2.1-0.6,3.1-1.2
				c0.1-0.1,0.3-0.1,0.4-0.2c0.3-0.2,0.7-0.4,1.1-0.5c1-0.3,2.1-0.6,3.1-0.8c1.2-0.2,2.3-0.5,3.5-0.6c0.1,0,0.1-0.1,0.2,0
				c0.2,0,0.4-0.1,0.6-0.1c0.1-0.1,0.2-0.1,0.4-0.1c0,0,0.1-0.1,0.2,0c0.3,0,0.5-0.1,0.8-0.1c0.2,0,0.4-0.1,0.6-0.1
				c0.5-0.1,1-0.1,1.5-0.1c0.2,0,0.4,0,0.7,0c0,0.1,0,0.1-0.1,0.1c-0.7,0.2-1.4,0.5-2.1,0.6c0,0-0.1,0-0.1,0
				c-0.2,0.1-0.4,0.1-0.6,0.2c-0.1,0.1-0.2,0.1-0.3,0.1c-0.9,0.2-1.7,0.4-2.6,0.6c-0.3,0.1-0.7,0.2-1,0.3c-0.1,0-0.2,0-0.3,0
				c-0.5,0.1-0.9,0.2-1.4,0.3c-0.4,0.1-0.8,0.2-1.3,0.3c-0.3,0.1-0.6,0.2-0.9,0.2c-1,0.3-1.9,0.6-2.9,0.9c-1,0.4-2.1,0.7-3.1,1.1
				c-0.5,0.2-1,0.4-1.5,0.6c-0.3,0.2-0.6,0.4-1,0.6c-0.3,0.2-0.6,0.4-0.8,0.6c-0.5,0.5-0.9,1-1.3,1.5c-0.2,0.2-0.4,0.5-0.6,0.7l0,0
				c-0.1,0.2-0.3,0.4-0.5,0.6c-0.1,0.2-0.3,0.3-0.5,0.5c-0.5,0.4-1.1,0.7-1.8,0.8 M69.7,11c0.2-0.3,0.4-0.7,0.8-0.8
				c0.1,0,0.1,0,0.2,0c0.1,0,0.2,0,0.3,0c0.1,0,0.1,0,0.1,0.1c0.1,0,0.1,0.1,0.1,0.1c0.1,0.2,0.1,0.3,0,0.5c0,0.1-0.1,0.2-0.1,0.2
				c-0.1,0.4-0.4,0.6-0.8,0.6c-0.1,0-0.1,0-0.1,0l0,0c-0.1,0.2,0,0.3-0.1,0.5c-0.1,0.1,0,0.2,0,0.3c0.1,0,0.1,0.1,0.1,0.2
				c0.1,0.1,0.2,0.2,0.2,0.3c0.1,0.3,0.2,0.5,0.3,0.7c0,0.1,0.1,0.2,0,0.3c0,0,0,0.1-0.1,0.1c0,0-0.1,0-0.1,0
				c-0.1-0.1-0.2-0.3-0.3-0.5c-0.1-0.3-0.3-0.6-0.6-0.8c-0.1,0-0.2-0.1-0.2-0.2C69.4,12.1,69.4,11.5,69.7,11z M63.6,5.7
				c0.2-0.5,0.8-1.2,1.5-1.1c0.2,0,0.3,0.1,0.2,0.3c0,0.2-0.1,0.3-0.1,0.5c-0.1,0.3-0.2,0.5-0.3,0.8c0,0.1,0.1,0.2,0.2,0.2
				c0.1,0,0.2,0,0.3,0c0.8-0.1,1.6-0.2,2.4-0.3c0,0,0.1,0,0.1,0c0,0.1,0,0.1-0.1,0.2c-0.5,0.3-1.1,0.5-1.7,0.7
				C65.5,7,64.9,7,64.4,6.8c-0.3-0.1-0.5-0.3-0.7-0.5C63.5,6.2,63.5,6,63.6,5.7z M61.1,14.2c0.2-0.2,0.4-0.5,0.7-0.6
				c0.5-0.5,1.1-0.9,1.7-1.3c0.8-0.6,1.6-1.2,2.2-1.8c0.1-0.1,0.2-0.2,0.4-0.3c0.1-0.3,0.5-0.5,0.7-0.7c0,0,0.1,0,0.1,0c0,0,0,0,0,0
				c0,0.2,0,0.5-0.3,0.6c0,0.1-0.1,0.1-0.1,0.2c-0.1,0.1-0.1,0-0.2,0l0,0c0.1,0,0.1,0.1,0,0.2c-0.2,0.2-0.3,0.4-0.5,0.6
				c-0.5,0.5-1.1,1-1.7,1.4c-0.7,0.5-1.4,0.9-2.2,1.4c0,0.1-0.1,0.1-0.1,0.1c0,0-0.1,0-0.1,0c-0.2,0.2-0.4,0.4-0.7,0.5
				c0,0-0.1,0-0.1,0C61,14.3,61,14.2,61.1,14.2z M61.3,43.2c0.2,0,0.3,0.1,0.5,0.2c0.2,0.2,0.4,0.1,0.6,0.3c0,0,0.1,0.1,0.1,0.1
				c0,0,0,0.1,0,0.1c0,0-0.1,0-0.1,0c-0.3,0-0.7-0.1-1-0.2c-0.4-0.1-0.7-0.3-1-0.4c0,0-0.1,0-0.1-0.1c0,0,0-0.1,0-0.1
				c0,0,0-0.1,0.1-0.1c0.1,0,0.2,0,0.4,0C60.7,43,61,43.1,61.3,43.2z M60.4,27.5c-0.1,0.5-0.1,1-0.4,1.3c-0.1,0.1-0.2,0.3-0.4,0.4
				c-0.2,0.1-0.3,0.2-0.5,0.2c-0.2,0.1-0.3,0.1-0.4-0.1c-0.1-0.1-0.1-0.2-0.1-0.3c-0.1-0.7-0.2-1.4-0.4-2.1
				c-0.2-0.7-0.4-1.4-0.7-2.1c-0.3-0.5-0.5-1.1-0.7-1.7c-0.1-0.2-0.1-0.4-0.1-0.6c0-0.1,0.1-0.2,0.2-0.2c0.3,0.1,0.5,0.2,0.8,0.4
				c0.6,0.5,1.2,1.1,1.7,1.8c0.4,0.6,0.7,1.2,0.9,1.9C60.3,26.8,60.4,27.2,60.4,27.5z M11.4,41.8c-0.2,0-0.3-0.1-0.4-0.2
				c-0.7-0.4-1.2-1-1.6-1.6c-0.4-0.7-0.7-1.5-0.8-2.3c-0.1-0.3,0-0.6,0-0.9c0.1-0.6,0.2-1.2,0.3-1.7c0.2-0.8,0.4-1.6,0.6-2.3
				c0.1-0.3,0.3-0.6,0.4-0.9c0,0,0.1,0,0.1,0c0,0,0,0,0,0c0,0.1,0,0.2,0,0.3c0,0.5,0,1,0,1.3c0,0.8,0,1.5-0.1,2.2
				c-0.1,0.9,0.1,1.7,0.4,2.5c0.4,0.8,0.7,1.7,1,2.5c0.1,0.2,0.2,0.5,0.3,0.7C11.9,41.7,11.7,41.9,11.4,41.8z M19.3,40.1
				c-0.1,0.3-0.3,0.4-0.6,0.4c-0.3,0-0.6-0.1-0.9-0.2c-0.6-0.2-1.2-0.4-1.8-0.5c-0.6-0.1-0.6,0-0.5,0.6c0.2,0.8,0.3,1.5,0.6,2.2
				c0.3,1.1,0.6,2.3,0.6,3.4c0,0,0,0.1,0,0.1c0,0.6-0.2,0.5-0.6,0.4c-0.1-0.1-0.2-0.1-0.3-0.2c-0.7-0.6-1.4-1.2-1.9-1.9
				c0,0,0-0.1-0.1-0.1c-0.3-0.5-0.3-0.6-0.3-1.3c0-0.2,0-0.5,0.1-0.8c0-0.2,0.1-0.5,0.1-0.7c0.1-1,0.1-2,0.2-3
				c0.1-0.9,0.2-1.8,0.5-2.7c0,0,0-0.1,0-0.1c0-0.1,0.1-0.1,0.2-0.1c0,0,0.1,0.1,0.1,0.1c0.3,0.4,0.7,0.9,1,1.3
				c0.4,0.6,0.8,1.1,1.4,1.5c0.5,0.5,1.1,0.8,1.7,1.1c0.1,0.1,0.2,0.1,0.4,0.1C19.3,39.9,19.4,39.9,19.3,40.1z M26.8,46.3
				c-0.4,0.3-0.9,0.6-1.4,0.9c-0.2,0.2-0.5,0.1-0.7-0.1c-0.4-0.3-0.7-0.6-1-0.9c-0.6-0.6-1.1-1.2-1.6-1.9c-0.6-0.7-1.1-1.5-1.5-2.3
				c-0.4-0.8-0.7-1.5-1-2.4c-0.1-0.3-0.1-0.6-0.1-1c0-0.4-0.2-0.7-0.3-1.1c-0.1-0.3-0.3-0.6-0.5-0.9c-0.6-0.7-1.4-1.3-2.1-1.9
				c-0.9-0.8-2-1.4-2.9-2.1c-0.3-0.2-0.6-0.5-1-0.8c-0.3-0.3-0.6-0.5-0.9-0.8c-0.3-0.3-0.6-0.6-0.9-1c-0.2-0.3-0.3-0.6-0.4-0.9
				c-0.1-0.5,0-1.1,0-1.6c0-0.1,0-0.1,0.1-0.2c0.2-0.5,0.4-1,0.7-1.5c0.1-0.2,0.2-0.3,0.4-0.5c0.1-0.1,0.2-0.1,0.3-0.1
				c0.2,0,0.4,0,0.5-0.1c0.1-0.1,0.2,0,0.2,0.1c0.1,0.1,0.1,0.3,0.1,0.5c-0.1,0.3-0.2,0.7-0.1,1c0,0.9,0.4,1.7,1,2.3
				c0.3,0.4,0.8,0.6,1.2,0.9c0.5,0.3,1.1,0.5,1.7,0.7c0.3,0.1,0.7,0.1,1,0.1c0.7,0,1.4-0.2,2.1-0.5c1-0.4,1.8-1,2.6-1.7
				c1-1,1.8-2.1,2.6-3.2c0.5-0.7,0.8-1.4,1.3-2.1c0.1-0.3,0.2-0.7,0.3-1c0,0,0-0.1,0.1-0.1c0,0,0.1,0,0.1,0c0,0.1,0.1,0.2,0.1,0.3
				c0.1,0.7,0.2,1.5,0.3,2.2c0.1,0.6,0.2,1.2,0.3,1.8c0.1,0.9,0.1,1.7,0.2,2.6c0,0.1,0,0.1,0,0.2c0,0.2,0,0.4,0.3,0.4
				c0.2,0,0.2-0.2,0.3-0.3c0.3-0.5,0.6-1,0.9-1.4c0.2-0.3,0.5-0.6,0.8-0.9c0.8-0.9,1.6-1.7,2.5-2.5c0.6-0.5,1.1-1,1.7-1.5
				c0.1-0.1,0.3-0.2,0.3-0.4c0.1-0.2,0.1-0.2-0.1-0.3c-0.3-0.1-0.6-0.1-1-0.2c-0.2,0-0.4-0.1-0.6-0.1c-0.1,0-0.2-0.1-0.3-0.1
				c-0.1,0-0.1-0.2,0-0.2c0.2-0.1,0.3-0.3,0.5-0.4c0.6-0.3,1.1-0.7,1.7-0.9c0.2-0.1,0.2-0.2,0.4-0.3c0-0.3,0-0.6,0.1-0.9
				c0-0.4,0.1-0.4,0.5-0.6c0.7-0.2,1.3-0.3,2-0.5c0.7-0.2,1.4-0.4,2.1-0.5c0.2-0.1,0.5-0.1,0.8-0.1c0.1,0,0.2,0,0.3,0.1
				c0.4,0.3,0.4,0.4,0,0.6c-0.3,0.1-0.6,0.2-0.9,0.3c-0.8,0.3-1.6,0.6-2.4,0.8c-0.6,0.2-1.3,0.4-1.9,0.6c-0.2,0.1-0.9,0.2-1,0.3
				c0.1,0,0.6,0.2,0.7,0.1c0.2-0.2,0.5-0.1,0.8-0.2c0.2-0.1,0.5-0.1,0.7-0.2c0.1,0,0.2,0,0.3,0c0,0,0.1,0,0.1,0.1c0,0,0,0.1,0,0.1
				c-0.1,0.1-0.2,0.1-0.3,0.2c-0.1,0.1-1.2,0.9-1.3,1c0.1,0,1.5-0.7,1.5-0.7c0.5-0.2,1.5-1,2-1.3c0.2-0.2,0.6-0.2,0.8-0.3
				c0.3-0.2,0.6-0.4,1-0.5c0.7-0.5,1.4-0.9,2.2-1.1c1-0.3,2-0.6,3.1-0.9c0.4-0.1,0.8-0.3,1.2-0.3c0.1,0,0.1,0,0.2,0
				c0.1,0,0.1,0.1,0.1,0.2c0,0.1-0.1,0.2-0.1,0.2c-0.1,0.1-0.2,0.1-0.4,0.2c-0.6,0.2-1.2,0.5-1.8,0.7c-0.7,0.3-1.5,0.6-2.2,0.9
				c-0.2,0.1-0.3,0.2-0.5,0.2c-0.5,0.2-1,0.5-1.5,0.7c-0.1,0-0.1,0-0.2,0.1c-0.2,0.1-0.4,0.3-0.6,0.4c-0.6,0.3-1.3,0.7-1.9,1
				c-0.2,0.1-0.4,0.3-0.6,0.4c-0.3,0.2-0.5,0.4-0.8,0.6c-0.3,0.2-0.6,0.5-0.9,0.8c0,0.3-0.1,0.6-0.1,1c-0.2,1.7-0.5,3.3-0.7,5
				c-0.1,1-0.3,1.9-0.5,2.9c-0.1,0.5-0.3,1-0.4,1.4c-0.1,0.2-0.2,0.3-0.3,0.5c-0.2,0.3-0.5,0.5-0.9,0.5C32,34,31.1,34,30.2,34
				c-0.7,0-1.4-0.1-2.1-0.4c-0.2-0.1-0.4-0.1-0.6,0c-0.7,0.3-1.4,0.8-2.1,1.2c-0.7,0.5-1.5,1-2.2,1.5c-0.3,0.2-0.5,0.5-0.7,0.7
				c-0.4,0.5-0.3,1.1,0.1,1.5c0.4,0.4,0.8,0.7,1.4,0.9c0.6,0.3,1.3,0.5,1.9,0.7c0.8,0.2,1.5,0.3,2.3,0.1c0.4-0.1,0.8-0.1,1.2-0.2
				c0.3,0,0.5,0,0.8,0.1c0.4,0.1,0.8,0.2,1.2,0.4c0.7,0.3,0.7,0.4,0.2,1c-0.9,1.1-1.8,2.1-2.8,3C28.2,45.2,27.5,45.8,26.8,46.3z
				 M43.1,43c0,0,0.1,0.1,0.1,0.1c0.1,0.7,0.4,1.5,0.5,2.2c0.1,0.5,0.4,1,0.8,1.4c0,0.1,0.1,0.1,0.2,0.1c0.3-0.2,0.5,0,0.7,0.1
				c0.2,0.1,0.2,0.3,0.1,0.4c-0.2,0.2-0.4,0.4-0.6,0.4c-0.5,0.1-0.9,0.1-1.3-0.2c-0.5-0.3-1-0.7-1.4-1.2c-0.2-0.2-0.3-0.5-0.5-0.7
				c-0.1-0.3-0.1-0.3,0.2-0.4c0.2-0.1,0.4-0.3,0.6-0.5c0-0.2-0.1-0.3-0.1-0.5c-0.1-0.2-0.1-0.4-0.2-0.7c-0.1-0.1-0.1-0.2-0.1-0.3
				C42.1,43.2,42,43.1,42,43c-0.2-0.5-0.3-1.1-0.1-1.6c0.4-0.8,0.6-1.7,1-2.5c0.3-1.3,0.7-2.6,1.1-3.8c0.2-0.7,0.5-1.4,0.8-2.1
				c0.5-1.1,0.9-2.3,1.5-3.4c0,0,0-0.1,0-0.1c0-0.1,0-0.1,0.1-0.1c0,0,0-0.1,0-0.1c0-0.1,0-0.1,0.1-0.1c0,0,0-0.1,0-0.1
				c0-0.1,0-0.1,0.1-0.1c0.1-0.2,0.2-0.3,0.3-0.5c0-0.1,0-0.1,0.1-0.1c0-0.2,0.1-0.3,0.2-0.4c0-0.3,0.2-0.4,0.4-0.6
				c0.1-0.1,0.2-0.2,0.3-0.4c0,0,0.1,0,0.1,0c0,0,0.1,0,0.1,0.1c0,0.1,0,0.1,0,0.2c-0.2,0.3-0.3,0.6-0.5,0.9
				c-0.3,0.8-0.6,1.6-0.9,2.4c-0.4,1-0.8,2-1.2,3c-0.3,0.8-0.5,1.5-0.8,2.3c-0.2,0.6-0.4,1.3-0.5,2c-0.1,0.4-0.2,0.8-0.3,1.2
				c0,0.4-0.2,0.8-0.2,1.2c-0.1,0.6-0.2,1.3-0.3,1.9C43,42.3,43.1,42.7,43.1,43z M27.4,81.9c-0.1,0.4-0.4,0.7-0.7,0.9
				c-0.4,0.2-0.8,0.4-1.2,0.4c-1.4,0.1-2.7,0.1-4.1-0.2c-0.4-0.1-0.8-0.1-1.1-0.3c-0.2-0.1-0.4-0.2-0.3-0.5c0-0.2,0.2-0.4,0.4-0.5
				c0.1,0,0.2-0.1,0.3-0.1c0.6,0,1.1-0.1,1.9,0c0.3,0,0.9,0,1.4,0c0.2,0,0.3-0.1,0.4-0.3c0.1-0.3,0.1-0.6,0.2-0.9
				c0-0.2,0.1-0.3,0.3-0.3c0.6-0.1,1.3-0.2,1.9-0.1c0.1,0,0.2,0,0.3,0c0.3,0,0.4,0.2,0.5,0.4C27.6,81,27.5,81.5,27.4,81.9z
				 M34.3,49.6c-0.1,0.2-0.2,0.3-0.4,0.3c-0.3,0.1-0.5,0.3-0.8,0.3c-0.5,0.1-0.9,0.3-1.3,0.5c-0.5,0.3-0.8,0.7-1.1,1.1
				c-0.3,0.4-0.6,0.8-0.9,1.2c-0.4,0.5-0.7,1-1,1.6c-0.2,0.5-0.4,0.9-0.6,1.4c0,0.1-0.1,0.1-0.1,0.2c-0.1,0.1-0.2,0.1-0.2,0
				c-0.1-0.1-0.1-0.3-0.1-0.4c-0.1-0.8-0.1-1.5,0.1-2.3c0.1-0.7,0.4-1.5,0.6-2.2c0.2-0.5,0.5-0.9,0.8-1.3c0.6-0.8,1.3-1.6,2-2.3
				c0.5-0.5,0.9-0.9,1.4-1.4c0.3-0.3,0.7-0.7,1.1-1c0.7-0.6,1.4-1.2,2.1-1.9c0.3-0.3,0.6-0.7,0.8-1.1c0.3-0.5,0.6-1,0.9-1.5
				c0.3-0.5,0.7-0.9,1.1-1.4c0.4-0.4,0.8-0.9,1.3-1.3c0.1-0.1,0.2-0.3,0.3-0.5c0.1-0.4,0.1-0.8,0.2-1.2c0.1-0.8,0.3-1.6,0.5-2.4
				c0.1-0.4,0.2-0.9,0.4-1.3c0.2-0.5,0.4-1,0.7-1.4c0-0.1,0.1-0.1,0.2-0.2c0.1-0.1,0.2,0,0.2,0.1c0,0.2,0,0.4,0,0.6
				c0,1,0,1.9-0.1,2.9c0,0,0,0,0,0c0,1,0,2.1-0.1,3.1c0,0.6-0.1,1.2-0.3,1.8c-0.1,0.3-0.2,0.5-0.3,0.7c-0.1,0.1-0.2,0.1-0.3,0
				c-0.3-0.2-0.5-0.4-0.8-0.5c-0.2-0.2-0.4-0.1-0.6,0c-0.3,0.3-0.6,0.5-0.8,0.9c-0.3,0.5-0.6,0.9-0.9,1.4c-0.3,0.6-0.8,1-1.1,1.5
				c-0.1,0.1-0.2,0.2-0.3,0.4c-0.1,0.1,0,0.2,0.1,0.3c0.3,0.1,0.6,0.3,0.8,0.4c0.6,0.2,1.2,0.4,1.8,0.5c0.3,0,0.3,0.1,0.4,0.4
				c0,0.1,0,0.1,0,0.2c0,0.3-0.1,0.5-0.4,0.5c-0.4,0.1-0.7,0.1-1.1,0.2c-0.7,0.1-1.4,0.2-2.1,0.3c-0.6,0.1-1.1,0.3-1.6,0.5
				c-1,0.3-1.7,0.8-2.3,1.7c0,0.1-0.1,0.1-0.1,0.2c0,0.1,0,0.2,0.1,0.2c0.2,0,0.3,0,0.5,0c0.3,0,0.5-0.1,0.8-0.1
				c0.2,0,0.4-0.1,0.7,0C34.3,49.3,34.3,49.5,34.3,49.6z M36.3,69.7c-0.2,0.1-0.4,0-0.5-0.1c-0.2-0.1-0.3-0.3-0.5-0.5
				c-0.2-0.2-0.3-0.5-0.5-0.7c-0.2-0.3-0.2-0.6-0.3-0.9c0-0.2,0-0.3,0-0.5c0,0,0,0,0,0c0-0.2,0-0.4,0-0.6c0-0.1,0.1-0.2,0.2-0.1
				c0.6,0.4,1.1,0.8,1.2,1.6c0.1,0.5,0.2,0.9,0.3,1.4C36.3,69.4,36.4,69.6,36.3,69.7z M48.9,81.5c-0.4,0.4-0.8,0.7-1.2,1.1
				c-0.3,0.3-0.5,0.6-0.9,0.8c-0.2,0.1-0.4,0.3-0.6,0.4c-0.1,0-0.1,0.1-0.2,0.1c-0.3,0.1-0.6,0.1-0.9,0.1c0-0.1,0-0.1,0.1-0.2
				c0.6-0.4,1.1-1,1.2-1.7c0-0.2,0-0.5,0-0.7c-0.1-0.3-0.3-0.6-0.5-0.8c-0.1-0.1-0.1-0.2-0.2-0.3c-0.1-0.1,0-0.3-0.2-0.4
				c-0.1,0-0.3,0-0.5,0c-1,0.1-2,0.3-3,0.5c-0.5,0.1-1.1,0.2-1.6,0.2c-0.3,0-0.6-0.1-0.8-0.3c-0.2-0.2-0.4-0.3-0.7-0.4
				c-0.5-0.2-0.9-0.5-1.4-0.7c-0.1,0-0.1-0.1-0.1-0.2c0.3,0.1,0.6,0.2,0.8,0.2c1.1,0.2,2.2,0.3,3.3,0.2c1.1-0.1,2.2-0.2,3.2-0.1
				c0.1,0,0.3,0,0.4,0c-0.1-0.4-0.4-0.6-0.7-0.9c-0.6-0.7-1.3-1.4-1.9-2c-0.5-0.5-1-0.9-1.4-1.4c-0.5-0.5-0.9-1.1-1.3-1.7
				c-0.1-0.1-0.1-0.3-0.2-0.4c-0.1-0.1,0-0.3,0.2-0.3c0.3,0,0.5,0.1,0.8,0.1c1.1,0.1,2.1,0.2,3.2,0.3c0,0,0.1,0,0.1,0
				c0.3,0,0.3,0.2,0.2,0.4c-0.1,0.1-0.1,0.2-0.2,0.2c-0.5,0.5-0.6,1.1-0.3,1.7c0.2,0.5,0.4,0.9,0.6,1.4c0.5,0.9,1,1.8,1.7,2.7
				c0.3,0.2,0.5,0.4,0.8,0.6c0.1,0.1,0.2,0.1,0.3,0.2c0.3,0.2,0.7,0.3,1,0.5c0.1,0.1,0.3,0.1,0.4,0.2c0.1,0,0.2,0.1,0.3,0.2
				C49.1,81.2,49.1,81.3,48.9,81.5z M50.5,76.9c-0.2,0-0.3,0-0.4-0.2c-0.1-0.1-0.1-0.2-0.1-0.3c-0.3-0.6-0.5-1.2-0.8-1.8
				c-0.2-0.4-0.4-0.9-0.5-1.3c-0.1-0.1-0.1-0.3-0.1-0.4c0-0.1,0-0.2,0.1-0.2c0.9,0,1.7,0.3,2,1.1c0.3,0.7,0.5,1.4,0.5,2.1
				c0,0.1,0,0.1,0,0.1C51.2,76.7,51.1,76.9,50.5,76.9z M52,19.9c-0.3,0.3-0.7,0.5-1.1,0.7c-0.5,0.3-1.1,0.7-1.6,1.1
				c-0.6,0.5-1.2,0.9-1.9,1.4c-0.1,0.2-0.3,0.3-0.5,0.4c0,0-0.1,0-0.1,0c0,0,0-0.1,0-0.1c0.2-0.2,0.3-0.5,0.5-0.7
				c0.2-0.3,0.4-0.6,0.7-0.8c0-0.1,0-0.1,0.1-0.1c0.1-0.1,0.1-0.1,0.2-0.2c0-0.1,0.1-0.1,0.1-0.1c0.3-0.3,0.7-0.6,1-0.9
				c0-0.1,0-0.1,0.1-0.1l0,0c0-0.1,0.1-0.2,0.2-0.2c0.2-0.2,0.5-0.4,0.7-0.5c0-0.1,0-0.1,0.1-0.1c0.1,0,0.1-0.1,0.2-0.1
				c0-0.1,0-0.1,0.1-0.1l0,0c0-0.1,0.1-0.1,0.1-0.1c0.7-0.5,1.4-1,2.1-1.4c0.4-0.2,0.6-0.5,0.8-0.9c0.2-0.5,0.5-1,0.8-1.5
				c0.1-0.1,0.2-0.2,0.3-0.2c0.2,0,0.3,0,0.5,0c1.2,0.1,2.4,0.3,3.6,0.7c0.3,0.1,0.5,0.2,0.8,0.3c0.1,0,0.1,0.2,0,0.3
				c-0.3,0.2-0.6,0.5-0.9,0.7c-0.5,0.4-1,0.7-1.4,1.2c-0.1,0.1-0.1,0.1-0.2,0.2c-0.3,0.3-0.7,0.4-1.2,0.3c-0.6-0.1-1.3-0.1-1.9,0
				c-0.4,0.1-0.8,0.2-1.2,0.3C52.7,19.4,52.3,19.6,52,19.9z M77.8,53.7c-0.1,0.1-0.2,0.3-0.3,0.4c-0.6,0.6-1.2,1.2-1.8,1.8
				c-0.9,0.8-1.7,1.7-2.6,2.5c-0.1,0.1-0.3,0.2-0.4,0.3c-0.2,0.3-0.5,0.5-0.8,0.8c-0.8,0.8-1.7,1.7-2.5,2.5
				c-0.9,0.8-1.8,1.7-2.6,2.5c-0.9,0.8-1.7,1.7-2.6,2.6c-0.9,0.8-1.7,1.7-2.6,2.5c-0.2,0.2-1.8,1.7-2.1,2c-0.2,0.2-0.8,0.7-0.8,0.7
				c-0.1,0.1-0.2,0-0.2-0.1c-0.4-1-0.9-2-1.3-3c-0.2-0.4-0.4-0.7-0.6-1.1c-0.1-0.2-0.1-0.2,0.1-0.3c0.1-0.1,0.2-0.2,0.3-0.2
				c0.2-0.2,0.3-0.4,0.2-0.7c-0.1-0.3-0.2-0.6-0.3-0.9c0-0.1-0.1-0.2-0.1-0.2c-0.1-0.1-0.1-0.1-0.1-0.2c-0.1-0.1-0.1-0.2-0.1-0.3
				c-0.2-0.3-0.3-0.6-0.5-0.9c-0.5-1.1-1.1-2.2-1.7-3.4c-0.3-0.7-0.7-1.3-1-1.9c-0.2-0.3-0.2-0.6,0-1c0.3-0.6,0.6-1.2,0.9-1.8
				c0.1-0.2,0.2-0.5,0.4-0.7c0,0,0.1-0.3,0.1-0.4c0-0.1,0-0.1,0-0.2c-0.1-0.3-0.3-0.6-0.5-0.9c-0.2-0.3-0.3-0.6-0.1-0.9
				c0-0.1,0.1-0.2,0.2-0.3c0.5-0.7,0.9-1.4,1.5-2c0.2-0.2,0.3-0.4,0.5-0.6c0.3-0.4,0.6-0.6,0.9-1c0.1-0.1,0.2-0.1,0.3-0.1
				c0.1,0,0.2,0.1,0.3,0.1c0.6,0.3,1.2,0.6,1.9,0.8c0.6,0.2,1.2,0.4,1.8,0.6c0.3,0.1,0.7,0.2,1,0.3c0.6,0.2,3.3,0.8,3.3,0.9
				c0.1,0,0.9,0.1,1.3,0.2c0,0,1.1,0.1,1.1,0.1c0.4,0,0.8,0.1,1.2,0.1c0,0,1.4,0.1,1.4,0.1c0.4,0,1.2,0.1,1.2,0.1
				c0.4,0,1.4,0.2,1.4,0.2c0,0,0.6,0,0.7,0.1c0,0,1.8,0.2,2.4,0.3c0.3,0.1,0.6,0.1,1,0.2C77.8,53.5,77.8,53.6,77.8,53.7z M81.6,74.6
				c-0.2,0.3-0.5,0.5-0.8,0.7c-0.1,0.1-0.3,0.1-0.5,0c-0.6-0.3-1.1-0.7-1.4-1.3c-0.1-0.2-0.2-0.5-0.1-0.8c0-0.3,0.1-0.7,0.1-1
				c0.2-1.1,0.4-2.3,0.6-3.4c0.2-0.9,0.4-1.9,0.5-2.8c0.1-0.4,0.1-0.7,0.2-1.1c0.1-0.6,0.4-1.2,0.8-1.7c0.1-0.2,0.4-0.3,0.6-0.3
				c0.4,0,0.7,0.1,1.1,0.1c0.1,0,0.2,0.1,0.1,0.2c-0.1,0.1-0.2,0.2-0.3,0.3c-0.3,0.3-0.5,0.6-0.7,0.9c-0.2,0.3-0.4,0.7-0.4,1
				c-0.2,0.8-0.4,1.6-0.5,2.4c-0.1,1-0.4,2-0.5,2.9c0,0.3-0.1,0.5-0.2,0.8c-0.1,0.5,0,0.9,0.3,1.3c0.2,0.3,0.5,0.6,0.8,0.8
				c0.1,0.1,0.1,0.1,0.2,0.2C81.8,74.2,81.9,74.3,81.6,74.6z M86.9,65.5c-0.2,0.2-0.5,0.3-0.7,0.5c-0.4,0.2-0.8,0.5-1.2,0.7
				c-0.2,0.1-0.3,0.1-0.4,0c-0.5-0.3-1-0.5-1.5-0.8c-0.2-0.1-0.4-0.2-0.6-0.2c-0.2-0.1-0.3-0.2-0.1-0.5c0.3-0.6,0.7-1.1,1.2-1.4
				c0.3-0.2,0.7-0.3,1-0.2c0.6,0,1.2,0.1,1.7,0.5c0.3,0.3,0.6,0.6,0.8,1C87.1,65.2,87.1,65.3,86.9,65.5z M87.2,65.9
				c0.1-0.1,0.2,0,0.3,0.1c0.1,0.1,0.1,0.2,0.1,0.3c0.1,0.4,0.2,0.8,0.3,1.2c0,0.2,0.1,0.3,0.1,0.5c0.1,0.8,0.3,1.6,0.4,2.4
				c-0.1,0-0.1,0-0.2-0.1c-0.7-1-1.5-1.9-2.4-2.7c-0.1-0.1-0.3-0.3-0.4-0.5c0.2-0.2,0.4-0.3,0.6-0.4C86.4,66.5,86.8,66.2,87.2,65.9z
				 M84.1,67.4c-0.7,0.6-1.3,1.3-1.9,2.1c-0.3,0.4-0.6,0.9-1,1.2c0,0-0.1,0.1-0.1,0.1c0-0.1,0-0.1,0-0.2c0.3-0.7,0.4-1.5,0.6-2.2
				c0.1-0.7,0.2-1.4,0.3-2.1c0-0.2,0.1-0.2,0.3-0.2c0,0,0,0,0,0c0.6,0.4,1.2,0.7,1.7,1.1C84.2,67.2,84.2,67.3,84.1,67.4z M86.8,73.5
				c-0.2,0.1-0.3,0.1-0.4-0.1c-0.2-0.2-0.4-0.4-0.5-0.6c0-0.1-0.1-0.1-0.1-0.2c-0.5-0.6-1.3-0.4-1.6,0c-0.2,0.2-0.3,0.4-0.5,0.7
				c-0.1,0.2-0.3,0.3-0.5,0.2c-0.5-0.2-1-0.5-1.5-0.8c-0.4-0.3-0.4-0.5-0.2-0.9c0.6-1.2,1.4-2.3,2.3-3.3c0.3-0.3,0.6-0.6,0.9-0.9
				c0.2-0.2,0.3-0.2,0.5,0c0.1,0.1,0.1,0.1,0.2,0.2c0.4,0.4,0.9,0.8,1.3,1.3c0.7,0.8,1.3,1.6,1.7,2.5c0.1,0.1,0.1,0.3,0.1,0.4
				c0,0.1,0,0.2-0.1,0.3c-0.1,0.1-0.2,0.2-0.3,0.3C87.6,73,87.2,73.3,86.8,73.5z M90.6,72.9c0,0.2,0,0.3,0,0.4
				c0,0.8-0.4,1.4-0.9,1.8c-0.1,0.1-0.3,0.2-0.4,0.3c-0.1,0.1-0.3,0.1-0.4,0c-0.2-0.2-0.5-0.5-0.7-0.7c-0.1-0.1-0.1-0.2-0.2-0.3
				c-0.1-0.1,0-0.2,0.1-0.3c0.1-0.1,0.1-0.1,0.2-0.2c0.4-0.3,0.6-0.7,0.9-1.1c0.1-0.3,0.2-0.6,0.1-0.9c-0.2-0.6-0.3-1.3-0.4-2
				c-0.1-0.7-0.2-1.5-0.3-2.2c-0.1-0.7-0.2-1.4-0.5-2.1c-0.2-0.6-0.5-1.2-0.9-1.6c-0.1-0.2-0.2-0.3-0.3-0.5c0-0.1,0-0.1,0.1-0.2
				c0.4-0.2,0.7-0.2,1.1-0.2c0.3,0.1,0.5,0.3,0.7,0.5c0.2,0.5,0.4,0.9,0.5,1.4c0.1,0.7,0.3,1.4,0.4,2c0.1,0.7,0.2,1.4,0.4,2.1
				c0.1,0.8,0.3,1.6,0.4,2.4C90.4,72.1,90.5,72.5,90.6,72.9z M86.4,50.7c0.2-0.6,0.6-1,0.9-1.5c0.1-0.2,0.2-0.2,0.4-0.1
				c0.3,0.3,0.6,0.5,0.9,0.8c0.8,0.8,1.4,1.6,1.9,2.6c0.1,0.1,0.1,0.2,0.1,0.3c0.3,0.5,0.5,1.1,0.7,1.7c0.1,0.4,0.2,0.7,0.3,1.1
				c0.2,0.8,0.3,1.6,0.4,2.4c0,0.6-0.1,1-0.5,1.5c-0.3,0.4-0.7,0.8-1,1.3c-0.3,0.4-0.6,0.7-0.8,1.1c-0.1,0.1-0.2,0.2-0.3,0.1
				c-0.6-0.3-1.1-0.7-1.6-1.2c-0.2-0.2-0.2-0.3,0-0.5c0.2-0.2,0.5-0.4,0.8-0.6c0,0,0.1,0,0.1-0.1c0.1-0.1,0.1-0.2,0-0.2
				c-0.2-0.1-0.3-0.2-0.5-0.3c-1.1-0.7-2.1-1.4-3.1-2.2c-0.5-0.4-0.5-0.3-1-0.1c-0.2,0.1-0.5,0.3-0.7,0.5c-0.9,0.7-1.8,1.4-2.8,1.9
				c-0.1,0-0.1,0.1-0.2,0.1c-0.1,0.1-0.1,0.2,0,0.3c0.2,0.1,0.5,0.2,0.7,0.3c0.1,0.1,0.3,0.1,0.4,0.2c0.1,0.1,0.2,0.2,0.1,0.3
				c-0.1,0.1-0.2,0.3-0.4,0.4c-0.4,0.4-0.8,0.8-1.3,1.2c-0.2,0.2-0.3,0.2-0.4,0c-0.2-0.3-0.4-0.5-0.6-0.8c-0.2-0.4-0.5-0.7-0.8-1
				c-0.3-0.4-0.6-0.8-0.7-1.2c0-0.1,0-0.1,0-0.2c0-0.8-0.1-1.5,0-2.3c0-0.5,0.3-0.7,0.7-0.8c0.3-0.1,0.7-0.2,1.1-0.2
				c0.6,0,1.3,0,1.9,0c0.1,0,0.2,0,0.3,0c0.4,0,0.5-0.1,0.6-0.5c0.1-0.5,0.4-0.8,0.8-1c0.5-0.3,0.8-0.6,1.1-1.1
				c0.3-0.5,0.7-0.9,1.2-1.3c0-0.1,0.1-0.2,0.2-0.2C86.1,51.2,86.3,51,86.4,50.7z"/>
			<path class="st5" d="M26.2,97.2c0,0.1,0,0.1-0.1,0.1c-0.1,0-0.1-0.1-0.1-0.1c0-0.1,0-0.1,0.1-0.1C26.2,97.1,26.2,97.1,26.2,97.2z
				"/>
		</g>
		<path class="st3" d="M42.4,42.9c-0.1-0.2-0.2-0.5-0.2-0.7c0-0.5,0.1-1.1,0.4-1.5c0,0,0.1,0,0.1,0c0.1,0,0.1,0.1,0,0.1
			c-0.2,0.5-0.2,1-0.3,1.6C42.4,42.5,42.4,42.7,42.4,42.9C42.4,42.9,42.4,42.9,42.4,42.9z"/>
		<path class="st0" d="M20.6,23.4"/>
		<path class="st0" d="M70.3,11.6c0,0-0.1-0.2,0-0.4c0.1-0.2,0.1-0.3,0.2-0.5c0-0.2,0.2-0.2,0.3-0.2c0.1,0,0.1,0.1,0.1,0.1
			c-0.1,0.3-0.2,0.5-0.3,0.8C70.5,11.5,70.4,11.5,70.3,11.6z"/>
		<path class="st2" d="M63.2,60.7C63.2,60.7,63.1,60.7,63.2,60.7c-0.1-0.1-0.1-0.1,0-0.1C63.2,60.6,63.2,60.6,63.2,60.7
			C63.3,60.6,63.2,60.7,63.2,60.7z"/>
	</g>
	<g>
		<g>
			<path d="M137.6,35.4h-10.8v21.4h-9.7V1.2h19.6c6.4,0,11.4,1.4,14.9,4.3c3.5,2.9,5.2,7,5.2,12.5c0,3.7-0.9,6.8-2.7,9.3
				c-1.8,2.5-4.3,4.4-7.5,5.8l12.5,23.2v0.5h-10.4L137.6,35.4z M126.9,27.6h9.9c3.3,0,5.8-0.8,7.6-2.5c1.8-1.6,2.7-3.9,2.7-6.7
				c0-3-0.8-5.3-2.5-6.9C143,9.9,140.4,9,137.1,9h-10.2V27.6z"/>
			<path d="M190.2,52.7c-2.7,3.2-6.6,4.8-11.6,4.8c-4.5,0-7.9-1.3-10.2-3.9c-2.3-2.6-3.5-6.4-3.5-11.4V15.5h9.3v26.7
				c0,5.2,2.2,7.9,6.5,7.9c4.5,0,7.5-1.6,9.1-4.9V15.5h9.3v41.3h-8.7L190.2,52.7z"/>
			<path d="M217.2,15.5l0.3,4.8c3.1-3.7,7.1-5.5,12-5.5c8.6,0,13,4.9,13.1,14.8v27.3h-9.3V30c0-2.6-0.6-4.6-1.7-5.8
				c-1.1-1.3-3-1.9-5.6-1.9c-3.7,0-6.5,1.7-8.4,5.1v29.4h-9.3V15.5H217.2z"/>
			<path d="M260.7,15.5l0.3,4.8c3.1-3.7,7.1-5.5,12-5.5c8.6,0,13,4.9,13.1,14.8v27.3h-9.3V30c0-2.6-0.6-4.6-1.7-5.8
				c-1.1-1.3-3-1.9-5.6-1.9c-3.7,0-6.5,1.7-8.4,5.1v29.4h-9.3V15.5H260.7z"/>
			<path d="M313.8,57.6c-5.9,0-10.7-1.9-14.3-5.6c-3.7-3.7-5.5-8.6-5.5-14.8v-1.1c0-4.1,0.8-7.8,2.4-11.1c1.6-3.2,3.8-5.8,6.7-7.6
				c2.9-1.8,6.1-2.7,9.6-2.7c5.6,0,10,1.8,13,5.4c3.1,3.6,4.6,8.7,4.6,15.2v3.7h-27c0.3,3.4,1.4,6.1,3.4,8.1c2,2,4.5,3,7.5,3
				c4.3,0,7.7-1.7,10.4-5.2l5,4.8c-1.7,2.5-3.9,4.4-6.6,5.7C320.3,56.9,317.2,57.6,313.8,57.6z M312.7,22.2c-2.5,0-4.6,0.9-6.2,2.7
				c-1.6,1.8-2.6,4.3-3,7.4h17.7v-0.7c-0.2-3.1-1-5.5-2.5-7C317.3,23,315.2,22.2,312.7,22.2z"/>
			<path d="M359.2,24c-1.2-0.2-2.5-0.3-3.8-0.3c-4.3,0-7.1,1.6-8.6,4.9v28.3h-9.3V15.5h8.9l0.2,4.6c2.2-3.6,5.3-5.4,9.3-5.4
				c1.3,0,2.4,0.2,3.3,0.5L359.2,24z"/>
		</g>
		<g>
			<path class="st3" d="M150.3,90.4c-0.4,4.4-2.1,7.9-4.9,10.4c-2.9,2.5-6.7,3.7-11.4,3.7c-3.3,0-6.2-0.8-8.8-2.4
				c-2.5-1.6-4.5-3.8-5.8-6.7c-1.4-2.9-2.1-6.3-2.1-10.1v-3.9c0-3.9,0.7-7.4,2.1-10.4c1.4-3,3.4-5.3,6-6.9c2.6-1.6,5.6-2.4,9-2.4
				c4.6,0,8.3,1.2,11.1,3.7c2.8,2.5,4.4,6,4.9,10.6h-7.2c-0.3-3-1.2-5.1-2.6-6.5c-1.4-1.3-3.5-2-6.2-2c-3.1,0-5.6,1.1-7.2,3.4
				c-1.7,2.3-2.5,5.7-2.6,10.1v3.7c0,4.5,0.8,7.9,2.4,10.3c1.6,2.4,4,3.5,7.1,3.5c2.8,0,5-0.6,6.4-1.9c1.4-1.3,2.3-3.4,2.7-6.4
				H150.3z"/>
			<path class="st3" d="M166.9,94l6.3-21h7.4l-12.3,35.6c-1.9,5.2-5.1,7.8-9.6,7.8c-1,0-2.1-0.2-3.3-0.5v-5.4l1.3,0.1
				c1.8,0,3.1-0.3,4-1c0.9-0.6,1.6-1.7,2.1-3.2l1-2.7L152.8,73h7.5L166.9,94z"/>
			<path class="st3" d="M211.7,88.8c0,4.8-1.1,8.6-3.2,11.5c-2.1,2.8-5.1,4.3-8.8,4.3c-3.6,0-6.4-1.3-8.5-3.9l-0.3,3.3h-6.3V60.1
				h6.9v16c2-2.4,4.7-3.5,8.1-3.5c3.8,0,6.7,1.4,8.9,4.2c2.2,2.8,3.2,6.7,3.2,11.7V88.8z M204.8,88.2c0-3.4-0.6-5.9-1.8-7.5
				c-1.2-1.7-2.9-2.5-5.1-2.5c-3,0-5.1,1.3-6.3,3.9v12.7c1.2,2.7,3.4,4,6.4,4c2.2,0,3.8-0.8,5-2.4c1.2-1.6,1.8-4.1,1.8-7.3V88.2z"/>
			<path class="st3" d="M231.1,104.5c-4.4,0-8-1.4-10.7-4.2c-2.7-2.8-4.1-6.5-4.1-11.1v-0.9c0-3.1,0.6-5.8,1.8-8.3
				c1.2-2.4,2.9-4.3,5-5.7c2.2-1.4,4.6-2,7.2-2c4.2,0,7.5,1.3,9.8,4c2.3,2.7,3.4,6.5,3.4,11.4v2.8h-20.2c0.2,2.6,1.1,4.6,2.6,6.1
				c1.5,1.5,3.4,2.2,5.6,2.2c3.2,0,5.8-1.3,7.8-3.9l3.7,3.6c-1.2,1.8-2.9,3.3-5,4.3C236,104,233.7,104.5,231.1,104.5z M230.3,78
				c-1.9,0-3.4,0.7-4.6,2c-1.2,1.3-1.9,3.2-2.2,5.6h13.2v-0.5c-0.2-2.3-0.8-4.1-1.9-5.3C233.7,78.6,232.2,78,230.3,78z"/>
			<path class="st3" d="M265.1,79.4c-0.9-0.2-1.9-0.2-2.8-0.2c-3.2,0-5.3,1.2-6.4,3.7V104h-6.9V73h6.6l0.2,3.5c1.7-2.7,4-4,7-4
				c1,0,1.8,0.1,2.5,0.4L265.1,79.4z"/>
			<path class="st3" d="M276.9,104H270V60.1h6.9V104z"/>
			<path class="st3" d="M284.5,65c0-1.1,0.3-2,1-2.7c0.7-0.7,1.6-1.1,2.9-1.1c1.3,0,2.2,0.4,2.9,1.1s1,1.6,1,2.7c0,1-0.3,1.9-1,2.6
				c-0.7,0.7-1.7,1-2.9,1c-1.3,0-2.2-0.3-2.9-1C284.8,66.9,284.5,66,284.5,65z M291.9,104h-6.9V73h6.9V104z"/>
			<path class="st3" d="M305.9,73l0.2,3.6c2.3-2.8,5.3-4.1,9-4.1c6.4,0,9.7,3.7,9.8,11.1V104H318v-20c0-2-0.4-3.4-1.3-4.4
				c-0.8-0.9-2.2-1.4-4.2-1.4c-2.8,0-4.9,1.3-6.3,3.8v22h-6.9V73H305.9z"/>
			<path class="st3" d="M342,90.7l-3.1,3.2V104H332V60.1h6.9v25.3l2.2-2.7l8.5-9.6h8.3l-11.5,12.9l12.7,18h-8L342,90.7z"/>
		</g>
	</g>
</g>
<text transform="matrix(1 0 0 1 531.3732 -483.8175)"><tspan x="0" y="0" style="font-family:'Roboto-Medium'; font-size:160.0721px;">Runner</tspan><tspan x="0" y="192.1" style="font-family:'Roboto-Medium'; font-size:160.0721px;">Cyberlink</tspan></text>
</svg>
