<svg xmlns="http://www.w3.org/2000/svg" viewBox="-8584 0 17168 3372" fill="url(#bismShine)"><defs><linearGradient id="bismShine" x1="0" x2=".22" y1="0" y2="1"><stop offset="0" stop-color="#f3d7b6"/><stop offset=".2" stop-color="#d68a4f"/><stop offset=".44" stop-color="#b15f2c"/><stop offset=".6" stop-color="#9a4f24"/><stop offset=".8" stop-color="#7a3d1c"/><stop offset="1" stop-color="#5c2f14"/></linearGradient></defs><path d="M7454.7 2780.3c0 55.2-152.3 160.4-456.9 310.8-288.9 143.6-457 215.5-506 215.5 42-91.9 185.5-207.2 428.9-349.2 236.4-137 409.7-212.2 521.8-223.9 8.7 5.1 12.2 20.1 12.2 46.8"/><path d="M7353.2 2451.2c0 23.4-7 60.2-22.8 110.3-19.2 58.4-36.7 88.5-52.5 88.5-24.5 0-68.3-20-134.8-60.1-64.8-40.1-99.8-68.5-103.3-86.9 0-30.1 10.5-66.8 29.7-108.6 21.1-50.1 45.6-75.2 70.1-75.2 17.5 0 56 18.4 119 55.2 63.1 38.4 94.6 63.4 94.6 76.8"/><path d="M6428.7 1059.6c0 13.3-12.2 46.8-38.5 101.9-33.3 78.5-92.8 133.6-178.6 160.4-84 28.4-168.1 55.1-250.4 80.2l-7-11.7c0-28.4 38.6-65.2 112.1-110.3 61.3-36.8 113.8-63.5 157.6-78.5-45.6-10-70.1-15.1-77.1-15.1-120.8 0-185.6 3.4-196.1 11.7-35 28.4-50.7 41.8-47.2 41.8-7 0-40.3-13.4-40.3-21.7 0-160.4 182.1-227.2 322.1-227.2 117.4 0 189.1 3.3 217.2 8.3 17.5 5 26.2 25.1 26.2 60.2"/><path d="M4354.9 2530.7c0 56.8-152.4 160.4-457 310.7-285.4 143.7-455.2 215.5-506 215.5 43.7-93.5 183.8-208.8 423.7-349.1q346.65-198 525.3-220.5c8.7 1.6 14 16.7 14 43.4"/><path d="M3987.2 1489.9c0 51.8-15.8 81.9-47.3 86.9-26.3-233.9-50.8-467.8-77-701.7-31.6-269-64.8-501.2-101.6-695l89.3-150.3c91.1 509.5 136.6 995.7 136.6 1460.1"/><path d="M2618 2609.2c0 58.5-152.3 163.7-457 314.1-288.9 143.7-457 215.5-506 215.5 42-93.6 183.8-208.8 423.7-347.5 231.1-135.3 406.2-208.8 523.5-223.9 10.5 1.7 15.8 15.1 15.8 41.8"/><path d="M2789.6 908.5c0 128.7-50.8 193.8-154.1 193.8-36.8 0-59.5-8.3-64.8-23.4-10.5 20.1-33.3 40.1-68.3 58.5-36.7 16.7-66.5 26.7-92.8 26.7-85.8 0-129.5-45.1-129.5-133.6 0-63.5 19.2-132 59.5-203.8h82.3c0 11.7-3.5 30-14 53.4-8.8 23.4-12.3 41.8-12.3 55.1 0 28.4 15.8 41.8 47.3 41.8 68.3 0 103.3-58.5 103.3-178.7l77-50.2c-3.5 16.7-5.2 53.5-5.2 107 0 50.1 15.7 73.5 50.8 73.5 29.7 0 43.7-43.5 43.7-132l64.8-48.5c8.8 112 12.3 165.4 12.3 160.4"/><path d="m2553.2 586.1-50.8 28.4c-7-61.8-29.7-138.7-71.8-228.9-42-90.2-84-157-127.8-200.5l71.8-183.7c119.1 35.1 178.6 197.1 178.6 486.1z"/><path d="M-1263.7 1621.9c0 41.7-1.8 73.5-3.5 93.5l-61.3 11.7c-1.7-76.8-17.5-158.7-45.5-243.9-35-96.9-78.8-167-129.6-208.8l22.8-223.9c68.3 38.4 122.5 125.3 162.8 260.6 36.8 113.6 54.3 217.2 54.3 310.8"/><path d="M-477.6 572.7c0 13.4-12.2 46.8-36.7 101.9-35.1 76.9-96.3 132-183.9 163.8-82.3 25-164.6 50.1-248.6 76.8-1.8-10-3.5-15-3.5-15 0-28.4 36.8-65.2 110.3-110.3 63-36.7 115.6-61.8 157.6-75.2-42-11.7-68.3-18.4-77.1-18.4-117.3 0-182.1 5.1-196.1 15.1-1.7 1.7-8.7 10-21 21.7-12.2 13.4-21 20.1-26.2 20.1-3.5 0-12.3-3.4-24.5-10.1-10.5-6.7-17.6-11.7-17.6-15 0-15 8.8-41.8 28.1-81.9 38.5-93.5 138.3-142 295.9-142 115.5 0 189.1 3.4 215.3 8.4 19.3 5 28 25 28 60.1"/><path d="M-587.9 29.8c0 55.1-131.3 145.3-393.9 274-164.6 76.8-329.2 153.6-492 228.8-10.5 15.1-31.5 23.4-63 23.4l-14.1-3.3c77.1-165.4 343.2-339.2 796.7-517.9 89.3-33.4 140.1-50.1 152.3-50.1h1.8c8.7 18.3 12.2 33.4 12.2 45.1"/><path d="M383.9 768.2c0 61.8-15.8 125.3-47.3 188.8-36.8 78.5-84.1 116.9-141.8 116.9-10.5 0-26.3-5-50.8-11.7-29.8 40.1-75.3 58.5-138.3 58.5-85.8 0-127.8-50.1-127.8-152 0-133.7 35-200.5 103.3-200.5 8.7 0 14 5 15.7 16.7 1.8 5 1.8 16.7 0 31.7-1.7 16.7-3.5 25.1-3.5 25.1 0 61.8 19.3 93.5 56 93.5 56.1 0 84.1-61.8 84.1-183.7l43.8-48.5c14 1.7 24.5 28.4 31.5 80.2s22.7 78.5 49 78.5c35 0 52.5-46.7 52.5-138.6l63.1-36.8c7 15.1 10.5 41.8 10.5 81.9"/><path d="M630.7 88.2c0 56.8-129.5 150.4-392.2 277.4C74 444.1-92.4 519.3-255.2 594.4c-12.3 16.7-33.3 23.4-66.5 23.4l-10.5-3.3c43.7-91.9 192.6-210.5 446.4-355.9 245.2-142 415-212.1 507.8-212.1 5.2 28.4 8.7 41.7 8.7 41.7"/><path d="M1514.9 2193.2c0 53.5-17.5 81.9-50.7 88.6-26.3-233.9-52.6-467.8-77.1-701.7-31.5-270.6-64.8-502.8-101.5-696.6l92.8-152.1c91 538 136.5 1024.1 136.5 1461.8"/><path d="M-7071.4 2772.9c0-23.4-5.2-38.4-12.2-41.7-101.6 13.3-238.2 83.5-411.5 212.1-190.8 140.4-285.4 259-285.4 359.2v-20c31.5-33.4 164.6-120.3 401-260.6 204.8-118.7 308.1-200.5 308.1-249"/><path d="M-5376.5 2671c0 23.4-7 60.2-22.8 110.3-21 58.5-38.5 88.5-54.3 88.5-22.7 0-68.3-20-134.8-58.4q-99.75-57.75-105-85.2h3.5c1.7-35.1 12.2-70.2 31.5-110.3 17.5-38.4 42-63.5 68.3-76.9 143.5 56.9 213.6 100.3 213.6 132"/><path d="M-5068.4 2609.2c0 23.4-7 60.2-19.2 110.3-19.3 58.4-36.8 88.5-54.3 88.5-22.8 0-68.3-20-136.6-58.5-66.5-38.4-101.5-66.8-106.8-86.8h3.5c0-23.4 10.5-60.2 29.8-106.9 22.7-55.2 45.5-81.9 64.8-81.9 14 0 54.2 20 120.8 58.5 66.5 40.1 98 65.1 98 76.8"/><path d="M-4427.6 2976.8c0 43.4 0 75.1-3.5 96.8l-61.2 11.7c-1.8-78.5-17.5-158.7-43.8-243.9-36.8-98.5-80.5-167-131.3-208.8l24.5-227.2c66.5 40.1 120.8 127 162.8 260.6q52.5 167.85 52.5 310.8"/><path d="M-6202.9 303.8c0 13.3-12.3 46.7-35.1 101.9-35 76.8-96.3 131.9-183.8 163.7-84 25-166.3 50.1-250.4 76.8-1.7-10-1.7-13.3-1.7-13.3 0-28.4 36.7-65.2 112-112 63.1-38.4 115.6-63.5 157.6-75.1-42-11.7-68.3-16.8-77-16.8-117.3 0-182.1 3.4-196.1 13.4-1.8 1.7-8.8 10-22.8 23.4-12.2 13.4-21 18.4-24.5 18.4-7 0-14-3.4-26.3-8.4-10.5-6.7-15.7-13.3-15.7-16.7 0-15 8.7-41.7 26.2-81.8 40.3-93.6 138.4-142 297.7-142 122.5 0 194.3 3.3 215.3 10 15.8 3.3 24.6 23.4 24.6 58.5"/><path d="M-1510.6 3277.5c0 58.4-150.6 162-455.2 314-288.9 140.4-458.7 212.2-507.8 212.2 78.8-167.1 345-339.1 798.4-517.9 87.6-33.4 138.4-51.8 150.6-51.8l5.3 3.4c7 15 8.7 28.4 8.7 40.1"/><path d="M-3158.2 49.8c-56 76.9-379.9 217.2-971.7 417.7-465.7 158.7-1013.8 330.8-1645.8 514.5-576.1 167.1-901.7 254-978.8 260.6l-26.2-20c68.3-83.5 192.6-160.4 369.4-225.5 36.8-13.4 180.3-56.8 434.2-130.3 478-143.7 956-285.7 1434-427.7 884.2-262.3 1344.7-392.6 1384.9-392.6z"/><path d="M-2435.1 2473.9c0 21.7-7 58.5-21 110.3-17.5 58.4-35 86.8-52.5 86.8-24.5 0-70-18.3-136.6-56.8-66.5-38.4-103.3-68.5-106.8-86.8h3.5c0-28.4 10.5-66.9 31.6-115.3 22.7-46.8 45.5-71.9 68.2-71.9 15.8 0 56.1 20.1 119.1 56.8 63 38.5 94.5 63.5 94.5 76.9"/><path d="M-2618.9 1747.2c0 91.9-22.8 180.4-71.8 265.6-52.5 95.2-122.5 155.4-206.6 178.8-14 21.7-21 58.4-21 106.9 0 113.6-75.3 237.2-224.1 374.2s-281.9 205.5-401 205.5c-75.2 0-159.3-23.4-252.1-70.2-92.8-48.4-161.1-101.9-201.3-162l31.5-28.4c36.7 36.7 134.8 53.4 294.1 53.4 98.1 0 227.6-40.1 388.7-120.3 175.1-91.8 264.4-178.7 264.4-260.6 0-26.7-14-55.1-38.5-85.2-36.8-45.1-56-70.1-59.5-76.8 7-81.9 21-137 42-162.1 21-25 68.3-38.4 141.8-38.4 47.3 0 94.5-20 141.8-60.1 47.3-41.8 71.8-83.6 71.8-128.7 0-113.6-29.8-282.3-89.3-504.5s-89.3-387.6-89.3-494.5c0-177.1 28-265.6 82.3-265.6l33.3 5c0 71.8 26.2 123.6 77 155.3 5.3 38.5 8.8 71.9 8.8 98.6 0 11.7-5.3 28.4-14 51.8-10.5 21.7-15.8 38.4-15.8 45.1 0 101.9 17.5 253.9 54.3 457.8 35 203.8 52.5 357.5 52.5 459.4"/><path d="M-3179.2 706.4c0 61.8-15.7 125.3-47.2 188.8-36.8 76.8-85.8 115.2-141.9 115.2-10.5 0-28-3.3-50.7-10-29.8 38.4-75.3 58.5-136.6 58.5-87.6 0-129.6-50.1-129.6-152.1 0-133.6 33.3-200.4 103.3-200.4 7 0 12.3 5 14 16.7 1.8 6.7 1.8 18.4 0 33.4-1.7 16.7-1.7 25.1-1.7 25.1 0 60.1 17.5 90.2 56 90.2 54.3 0 82.3-60.2 82.3-183.8l45.5-45.1c12.3 1.7 24.5 28.4 31.5 80.2 8.8 50.1 24.6 75.2 50.8 75.2 33.3 0 50.8-45.1 50.8-138.7l61.3-36.8c8.7 20.1 12.2 46.8 12.2 83.6"/><path d="M-2020.1 2078c0 50.1-15.7 78.5-50.8 85.2-24.5-233.9-50.7-467.8-77-701.7-31.5-270.6-64.8-502.9-99.8-696.7l91-150.3c91.1 537.9 136.6 1025.8 136.6 1463.5"/><path d="M6895 808c-31.5 0-69.2 137.5-111.2 408.1l7.7 3c22.8 0 44.1-16.7 63.3-50.1 19.3-33.4 36.8-48.7 52.5-48.7 182.1 312.4 270.3 530.6 270.3 654.2 0 65.2-142.1 97.3-194.6 97.3-70 0-171-50.1-174.5-125.2l-63.3 35.3c0 96.9-43.6 249-171.4 249-19.3 0-74.1-29.8-74.1-51.5 0-80.2-6.5-135.2-17-163.6l-49.4 28c-.1 198.8-218.1 290.3-398.5 290.3-101.5 0-162.8-149.6-222.3-143-211.6 28-416.8 64.3-690.3 38.4v-3c-219.5-24.3-455.8-45.7-654.7-73.7v-5.9c-71.8-5-150.7-48.2-234.8-126.7-84-80.2-152.6-117.8-206.9-117.8-152.3 0-227 136.9-227 412.5-217.1 212.2-436.1 359.1-653.2 437.6v53.1c194.3-23.4 339.2-59.3 435.5-106.1 122.5-61.8 222.5-164.5 299.5-306.5 42.1 68.5 121.7 101.7 242.5 101.7 101.5 0 162.7-24.9 183.8-76.6 107.6 36 360.9 28.8 770.5 66.3v1.4c1.5-.1 3.2.2 4.7 0 2.1.2 4-.2 6.1 0v-1.4c253.4-30.1 535-59.4 749-89.9 3.5 0 95.6 184.2 188.4 184.2 103.3 0 274.6-40.4 328.9-135.6 70 55.1 178.5 37.8 262.5 29.5 75.3-90.2 144.3-210.7 203.9-361 40.2 120.3 115.5 181.2 222.3 181.2 161.1 0 240.9-187.9 240.9-318.3 0-324.1-194.1-699.6-381.4-963.6zM4041.2 1902.7c38.6 0 58.7 33.2 58.7 101.7l-143.6-60.4c31.5-28.4 58.7-41.3 84.9-41.3"/><path d="M4158.8-595c0 90.2-45.6 173.7-136.6 250.5-89.3 78.6-183.8 117-278.4 117-35 0-75.3-11.7-122.6-35.1-47.2-25-78.7-36.7-99.8-36.7-22.7 0-49 23.3-77 66.8-28 45.1-54.3 68.5-78.8 70.1 5.3-68.4 35-135.3 89.3-200.4 54.3-65.2 117.3-96.9 185.6-96.9 33.3 0 73.5 8.3 119.1 25 43.7-56.8 85.8-113.6 129.5-172 59.6-65.2 122.6-96.9 187.4-96.9 22.7 0 43.7 11.7 59.5 35 15.8 25.1 22.8 48.5 22.8 73.6m-159.4 46.7c-31.5 3.4-64.8 18.4-101.5 50.2-35 31.7-56 63.4-64.8 95.2 3.5 1.6 8.8 1.6 12.3 1.6 47.2 0 80.5-6.6 98-21.7 36.8-33.4 56-75.1 56-125.3"/><path d="M3255.3 1981.1c0 101.9-8.7 177-24.5 227.2-26.3 86.8-80.5 130.3-162.8 130.3-68.3 0-131.4-23.4-185.6-70.2-56.1-46.8-94.6-101.9-113.8-165.4-14 73.5-52.6 137-115.6 190.5-63 55.1-133.1 81.8-210.1 81.8-119.1 0-210.1-65.1-276.6-193.8-28.1 51.8-99.8 76.9-210.1 76.9-145.4 0-218.9-33.4-218.9-98.6 0-193.8 148.8-344.1 444.7-447.7l-5.2-101.9c17.5-20.1 35-41.8 52.5-65.2 17.5-21.7 26.3-45.1 26.3-66.8 21 130.3 40.2 260.6 59.5 392.6 31.5 188.8 89.3 284 175.1 284 64.8 0 113.8-31.7 148.8-93.6 29.8-50.1 43.8-106.9 43.8-173.7 0-50.1-7-115.3-21-193.8-17.5-100.2-28.1-165.4-31.6-195.5 21.1-21.7 38.6-53.4 49.1-96.8 12.2-43.5 26.2-73.6 38.5-90.3 54.3 235.6 89.3 382.6 106.8 437.7 71.8 220.6 150.6 332.5 234.6 332.5 28 0 42-48.5 42-145.3 0-45.2-24.5-135.4-73.5-269-40.3-111.9-77-202.2-110.3-269 15.7-18.4 33.3-51.8 50.8-101.9 19.2-48.4 38.5-81.9 56-101.9 12.2 51.8 57.8 182.1 138.3 390.9 61.3 163.7 92.8 295.7 92.8 396m-1132.8-36.8c0-21.7-3.5-41.8-8.8-58.5h-17.5c-78.8 0-133 30.1-161.1 90.2 0 5.1-1.7 15.1-5.2 28.4 0 1.7-1.8 3.4-3.5 5.1 0 15 7 28.4 21 41.7 14 11.7 29.8 18.4 45.5 18.4 85.8 0 129.6-41.8 129.6-125.3"/><path d="M-1559.6 2340.2c-10.5 817-1013.8 1226.3-2889 1226.3-810.6 0-2057.2-218.9-2661.3-1149.4l38.5-23.4c919.2 685 1822.7 875.4 2768.2 875.4 1328.9 0 2428.4-242.2 2619.3-725-70.1-145.4-105.1-260.7-105.1-344.2 0-55.1 24.5-106.9 75.3-157h22.8c19.2 0 56 6.7 110.3 20 52.5 13.4 91 20.1 112 20.1v1.6c210.1-5 332.7-46.7 367.7-123.6 64.8-145.3 161.1-250.6 287.2-315.7 59.5-30.1 204.8-78.6 435.9-145.4-78.8-51.8-171.6-78.5-281.9-78.5-33.2 0-98 5-194.3 13.4-84 8.3-150.6 10-201.4 6.6q34.2-285.6 278.4-285.6c117.3 0 292.4 35.1 521.8 103.5 238.1 71.9 418.5 110.3 539.3 117l-92.8 205.5c-92.8 5-199.6 13.3-318.7 28.4-190.8 295.7-285.4 544.6-285.4 750.1 0 113.6 33.3 205.5 99.8 274 66.5 70.1 157.6 105.2 276.7 105.2 98 0 227.6-40.1 388.6-121.9 173.4-88.6 260.9-175.4 260.9-260.6 0-26.8-15.7-60.2-47.2-96.9-31.6-36.8-47.3-58.5-47.3-63.5 0-76.9 12.2-130.3 40.3-158.7 26.2-28.4 73.5-41.8 143.5-41.8 47.3 0 94.6-20.1 141.8-61.8 47.3-40.1 71.8-83.5 71.8-128.7 0-58.4-42-235.5-122.5-534.6C706 960.3 643 776.5 601 719.7c-28 48.5-42 73.5-42 73.5 0 78.6 19.2 202.2 57.7 367.6 38.6 167 57.8 292.3 57.8 379.2 0 55.1-15.7 105.3-47.3 150.4l3.5-71.9c3.5-100.2-17.5-245.5-63-432.7-47.3-195.4-70-339.1-70-432.6 0-100.3 31.5-148.7 98-148.7 110.3 0 213.6 178.7 308.2 539.6 75.3 292.3 112 516.2 112 669.9 0 93.6-22.7 182.1-70 267.3-54.3 95.2-122.6 155.4-208.4 177.1-14 23.4-21 58.5-21 108.6 0 128.6-78.8 258.9-234.6 387.6-157.6 126.9-306.4 192.1-446.5 192.1-157.5 0-281.9-51.8-374.6-153.7-92.8-101.9-138.4-227.2-138.4-379.2 0-218.9 91.1-482.9 271.4-791.9-271.4 38.4-455.2 101.9-549.8 190.4 71.8 76.9 108.6 160.4 108.6 248.9 0 58.5-10.5 108.6-31.5 148.7-26.3 55.2-66.6 83.6-122.6 83.6-94.5 0-190.8-46.8-290.6-137-22.8 68.5-87.6 120.3-192.6 158.7-59.6 21.7-120.8 40.1-183.9 41.8-49 1.6-80.5-5.1-91-16.8m723.1-350.8c0-41.8 1.8-98.6-59.5-98.6-26.3 0-73.6 18.4-73.6 48.5 50.8 33.4 77.1 50.1 133.1 50.1"/><path d="M1683 108.3c0 78.5-43.8 158.7-129.5 242.2-87.6 83.6-171.6 125.3-252.2 125.3-47.2 0-98-11.7-148.8-35.1-50.8-23.3-85.8-35-103.3-35-24.5 0-50.8 21.7-78.8 66.8-28 43.4-56 66.8-82.3 68.5 8.8-68.5 38.5-133.7 89.3-195.5 56-66.8 117.3-100.2 187.4-100.2 38.5 0 78.7 8.3 119 25 42-56.8 85.8-115.2 129.6-173.7 61.3-63.5 124.3-95.2 187.3-95.2 22.8 0 43.8 11.7 59.6 35.1 15.7 23.3 22.7 48.4 22.7 71.8m-159.3 45.1c-31.5 1.7-66.5 20-101.6 51.8-35 31.7-57.7 63.5-64.7 95.2 3.5 3.4 8.7 3.4 14 3.4 101.5 0 152.3-50.2 152.3-150.4"/><path d="M-1850.3-10.3c0 76.8-43.7 158.7-129.5 242.2s-169.9 125.3-253.9 125.3c-47.3 0-96.3-11.7-147.1-35.1-52.5-23.4-87.5-35.1-106.8-35.1-24.5 0-50.8 21.8-77 66.9-28 43.4-54.3 66.8-80.6 68.5 5.3-66.9 35.1-133.7 91.1-198.8 54.3-65.2 115.5-98.6 183.8-98.6 35 0 73.6 8.3 119.1 26.7 43.8-56.8 87.5-115.2 131.3-173.7 61.3-63.5 122.6-95.2 185.6-95.2 24.5 0 43.8 11.6 59.5 35 15.8 23.4 24.5 46.8 24.5 71.9m-161 48.4c-31.6 1.7-64.8 18.4-99.8 50.1-36.8 30.1-57.8 61.9-66.6 93.6 5.3 1.7 10.5 3.3 15.8 3.3 47.3 0 78.8-6.6 94.5-20 38.6-31.8 56.1-73.5 56.1-127"/><path d="M-3144.2 1581.8-3328 1804c-29.8 3.3-61.3 5-94.5 5-38.6 0-98.1-3.4-176.9-10-77-6.7-134.8-10.1-169.8-10.1-126.1 0-252.1 40.1-380 122q-73.5 45.15-278.4 220.5c-94.5 81.9-166.3 122-213.6 122-77 0-150.5-80.2-218.8-237.3-210.1 185.5-731.9 350.9-1122.3 350.9-548.1 0-761.7-96.9-879-150.4l-162.8 78.5c-115.6 0-194.4-33.4-239.9-101.9-122.5 227.2-295.9 364.2-516.5 412.7v-53.5c0-18.4 64.8-90.2 196.1-217.2 77.1-73.5 154.1-147 234.6-220.5-3.5-275.6 73.6-412.6 231.1-412.6 24.6 0 105.1 13.3 192.6 95.2 243.4 232.2 471 302.4 1073.3 302.4 478 0 735.4-101.9 1031.3-225.6 71.8 98.6 143.6 147.1 217.1 147.1 47.3 0 115.6-26.8 206.6-78.6 155.8-93.5 246.9-143.6 269.6-153.7 119.1-58.4 231.2-91.8 338-98.5-138.4-28.4-292.4-45.1-462.3-51.8-288.9-13.4-435.9-20.1-444.7-20.1q36.75-285.6 278.4-285.6c145.3 0 353.7 40.1 628.6 116.9 290.6 80.2 506 125.3 646 132m-3930.7 390.9c0-46.8-10.5-78.5-29.7-93.5-5.3-3.4-10.6-5.1-12.3-5.1h-21c-26.3 0-54.3 13.4-82.3 40.1z"/></svg>
