<svg role="img" viewBox="0 0 1804 1804" xmlns="http://www.w3.org/2000/svg" style="fill-rule:evenodd;clip-rule:evenodd;stroke-linejoin:round;stroke-miterlimit:2"><title>Mockoon</title><path d="m901.999 1000.81-181.978 196.66c-29.098 31.44-59.995 62.24-97.784 82.43l-.003.01c-71.971 38.46-161.02 36.17-237.272 7.1-60.655-23.13-113.904-61.87-165.609-101.12-42.718-32.42-85.435-64.84-128.152-97.26h-.003c-22.114-16.78-43.566-35.09-59.185-58.03l-.007-.02c-42.129-61.905-37.788-148.205-.129-212.936 34.629-59.524 95.906-100.016 147.084-141.615 44.6-36.26 92.316-68.408 141.072-98.836 55.228-34.477 116.646-77.309 185.089-81.618 65.019-4.097 127.336 24.623 183.884 56.968l.003.002C764.17 595.541 841.436 642.775 902 703.319c60.564-60.544 137.83-107.778 212.99-150.774v-.002c56.55-32.345 118.87-61.065 183.89-56.968 68.44 4.309 129.86 47.141 185.08 81.612 48.76 30.434 96.48 62.582 141.07 98.836 51.19 41.605 112.46 82.097 147.09 141.621 37.66 64.731 42 151.031-.13 212.936v.02c-15.62 22.94-37.07 41.25-59.19 58.03-42.72 32.42-85.43 64.84-128.15 97.26-51.71 39.25-104.96 77.99-165.61 101.12-76.25 29.07-165.3 31.36-237.27-7.1l-.01-.01c-37.79-20.19-68.68-50.99-97.78-82.43-60.66-65.56-121.319-131.11-181.981-196.66Z" fill="#242830"/><path d="M480.161 876.572c0-72.069 57.928-130.608 129.766-131.596.614-.008 1.228-.012 1.844-.012h.002c72.685 0 131.608 58.923 131.608 131.608s-58.923 131.608-131.608 131.608h-.002c-72.688 0-131.61-58.924-131.61-131.608ZM1060.62 876.572c0-72.069 57.93-130.608 129.76-131.596.62-.008 1.23-.012 1.85-.012 72.68 0 131.61 58.923 131.61 131.608s-58.93 131.608-131.61 131.608c-72.69 0-131.61-58.924-131.61-131.608Z" fill="#ffffff"/><path d="M571.856 876.572c0-22.046 17.871-39.918 39.913-39.918h.002c.606 0 1.209.014 1.808.041 21.206.946 38.107 18.437 38.107 39.877 0 21.439-16.901 38.93-38.107 39.877-.599.027-1.202.04-1.808.04h-.002c-22.042 0-39.913-17.871-39.913-39.917ZM1152.31 876.572c0-22.046 17.87-39.918 39.92-39.918.61 0 1.21.014 1.81.041 21.2.946 38.1 18.437 38.1 39.877 0 21.439-16.9 38.93-38.1 39.877-.6.027-1.2.04-1.81.04-22.05 0-39.92-17.871-39.92-39.917Z" fill="#242830"/></svg>
