<svg role="img" viewBox="0 0 70 70" xmlns="http://www.w3.org/2000/svg"><title>PhpStorm</title><linearGradient id="phpstorm-a" gradientUnits="userSpaceOnUse" x1=".558" y1="46.846" x2="29.947" y2="8.026"><stop offset=".016" stop-color="#765AF8"/><stop offset=".382" stop-color="#B345F1"/><stop offset=".758" stop-color="#FA3293"/><stop offset=".941" stop-color="#FF318C"/></linearGradient><path fill="url(#phpstorm-a)" d="M39.6 15.2 36.3 5.2 11.9 0 0 13.5 37.2 32.5z"/><linearGradient id="phpstorm-b" gradientUnits="userSpaceOnUse" x1="2.73" y1="48.379" x2="32.072" y2="9.621"><stop offset=".016" stop-color="#765AF8"/><stop offset=".382" stop-color="#B345F1"/><stop offset=".758" stop-color="#FA3293"/><stop offset=".941" stop-color="#FF318C"/></linearGradient><path fill="url(#phpstorm-b)" d="M28 41.4 27.3 20.6 0 13.5 6.7 53.6 28 53.4z"/><linearGradient id="phpstorm-c" gradientUnits="userSpaceOnUse" x1="50.857" y1="46.405" x2="34.274" y2="7.048"><stop offset=".183" stop-color="#765AF8"/><stop offset=".238" stop-color="#8655F6"/><stop offset=".345" stop-color="#9F4CF3"/><stop offset=".443" stop-color="#AE47F2"/><stop offset=".522" stop-color="#B345F1"/></linearGradient><path fill="url(#phpstorm-c)" d="M22.1 41 23.4 24.5 43.2 4.2 60.9 7.4 70 30.1 60.5 39.5 45 37 35.4 47.1z"/><linearGradient id="phpstorm-d" gradientUnits="userSpaceOnUse" x1="63.266" y1="57.339" x2="24.698" y2="27.516"><stop offset=".016" stop-color="#765AF8"/><stop offset=".382" stop-color="#B345F1"/></linearGradient><path fill="url(#phpstorm-d)" d="M43.2 4.2 14.8 29.4 20.3 61.8 43.9 70 70 54.4z"/><path fill="#000" d="M13.4 13.4H56.6V56.6H13.4z"/><path fill="#FFF" d="M17.5 48.5H33.7V51.2H17.5z"/><path fill="#FFF" d="M17.3 19h7.3c4.3 0 6.9 2.5 6.9 6.2v.1c0 4.2-3.2 6.3-7.3 6.3h-3v5.4h-3.9L17.3 19zm7.1 9c2 0 3.1-1.2 3.1-2.7v-.1c0-1.8-1.2-2.7-3.2-2.7h-3V28h3z"/><path fill="#FFF" d="M32.5 34.4l2.3-2.8c1.6 1.3 3.3 2.2 5.4 2.2 1.6 0 2.6-.6 2.6-1.7V32c0-1-.6-1.5-3.6-2.3-3.6-.9-6-1.9-6-5.5v-.1c0-3.3 2.6-5.4 6.3-5.4 2.6 0 4.9.8 6.7 2.3l-2.1 3c-1.6-1.1-3.2-1.8-4.7-1.8-1.5 0-2.3.7-2.3 1.6v.1c0 1.2.8 1.6 3.9 2.4 3.6 1 5.7 2.3 5.7 5.4v.1c0 3.6-2.7 5.6-6.6 5.6-2.8 0-5.5-1-7.7-2.9z"/></svg>
