<svg role="img" viewBox="0 0 128 128" xmlns="http://www.w3.org/2000/svg"><title>Sublime Merge</title><path fill="#88D9D9" d="M65.416 72.992c-.303.021-.614-.057-.881-.244L33.47 50.996c-.618-.433-.768-1.286-.336-1.905l8.759-12.508c.433-.618 1.286-.769 1.905-.336l26.782 18.754h15.539c.384 0 .73.158.979.412.036.037.453.412 1.026 1.033l6.588 6.588c.534.534.534 1.4 0 1.934l-6.926 6.927v-.008a.96.96 0 0 1-.712.73.96.96 0 0 1-.955.389H44.722l-.009-.014z"/><path fill="#00E6E7" d="M65.42 55.008l.005-.007h20.694c.372 0 .709.148.955.389.029.028.311.296.724.742v-.013l6.914 6.915c.534.534.534 1.4 0 1.934l-6.537 6.537c-.599.654-1.04 1.05-1.077 1.088a.96.96 0 0 1-.979.413H49.114L22.341 91.012c-.619.433-1.472.282-1.905-.336l-8.759-12.508c-.432-.619-.282-1.472.336-1.905l31.065-21.752c.269-.188.581-.266.885-.244z"/></svg>
