<svg role="img" viewBox="0 0 70 70" xmlns="http://www.w3.org/2000/svg"><title>WebStorm</title><linearGradient id="webstorm-a" gradientUnits="userSpaceOnUse" x1="25.068" y1="1.46" x2="43.183" y2="66.675"><stop offset=".285" stop-color="#00CDD7"/><stop offset=".941" stop-color="#2086D7"/></linearGradient><path fill="url(#webstorm-a)" d="M9.4 63.3 0 7.3 17.5.1 28.6 6.7 38.8 1.2 60.1 9.4 48.1 70z"/><linearGradient id="webstorm-b" gradientUnits="userSpaceOnUse" x1="30.72" y1="9.734" x2="61.365" y2="54.671"><stop offset=".14" stop-color="#FFF045"/><stop offset=".366" stop-color="#00CDD7"/></linearGradient><path fill="url(#webstorm-b)" d="M70 23.7 61 1.4 44.6 0 19.3 24.3 26.1 55.6 38.8 64.6 70 46 62.3 31.7z"/><linearGradient id="webstorm-c" gradientUnits="userSpaceOnUse" x1="61.082" y1="15.29" x2="65.106" y2="29.544"><stop offset=".285" stop-color="#00CDD7"/><stop offset=".941" stop-color="#2086D7"/></linearGradient><path fill="url(#webstorm-c)" d="M56 20.4 62.3 31.7 70 23.7 64.4 9.8z"/><path fill="#000" d="M13.4 13.4H56.6V56.6H13.4z"/><path fill="#FFF" d="M17.5 48.5H33.7V51.2H17.5z"/><path fill="#FFF" d="M38.7 34.3l2.3-2.8c1.6 1.3 3.3 2.2 5.3 2.2 1.6 0 2.5-.6 2.5-1.7v-.1c0-1-.6-1.5-3.6-2.3-3.6-.9-5.8-1.9-5.8-5.5v-.1c0-3.3 2.6-5.4 6.2-5.4 2.6 0 4.8.8 6.6 2.3l-2 3c-1.6-1.1-3.1-1.8-4.6-1.8-1.5 0-2.3.7-2.3 1.6v.1c0 1.2.8 1.6 3.8 2.4 3.6 1 5.6 2.3 5.6 5.4v.1c0 3.6-2.7 5.6-6.5 5.6-2.8 0-5.5-1-7.8-2.9z"/><path fill="#FFF" d="M35.2 19 32.5 29.4 29.5 19h-3L23.4 29.4 20.7 19h-4.1L21.7 36.9h3.3l3-10.4 2.9 10.4h3.4L39.4 19h-4.2z"/></svg>
